<svg xmlns="http://www.w3.org/2000/svg" xmlns:xlink="http://www.w3.org/1999/xlink" contentStyleType="text/css" height="761px" preserveAspectRatio="none" style="width:937px;height:761px;background:#FFFFFF;" version="1.1" viewBox="0 0 937 761" width="937px" zoomAndPan="magnify"><defs/><g><!--cluster org--><g id="cluster_org"><path d="M726.5,274.9137 L750.0518,274.9137 A3.75,3.75 0 0 1 752.5518,277.4137 L759.5518,299.5348 L927.5,299.5348 A2.5,2.5 0 0 1 930,302.0348 L930,495.4137 A2.5,2.5 0 0 1 927.5,497.9137 L726.5,497.9137 A2.5,2.5 0 0 1 724,495.4137 L724,277.4137 A2.5,2.5 0 0 1 726.5,274.9137 " fill="none" style="stroke:#000000;stroke-width:1.5;"/><line style="stroke:#000000;stroke-width:1.5;" x1="724" x2="759.5518" y1="299.5348" y2="299.5348"/><text fill="#000000" font-family="sans-serif" font-size="14" font-weight="bold" lengthAdjust="spacing" textLength="22.5518" x="728" y="292.0211">org</text></g><!--cluster springframework--><g id="cluster_springframework"><path d="M750.5,319.9137 L865.0859,319.9137 A3.75,3.75 0 0 1 867.5859,322.4137 L874.5859,344.5348 L903.5,344.5348 A2.5,2.5 0 0 1 906,347.0348 L906,471.4137 A2.5,2.5 0 0 1 903.5,473.9137 L750.5,473.9137 A2.5,2.5 0 0 1 748,471.4137 L748,322.4137 A2.5,2.5 0 0 1 750.5,319.9137 " fill="none" style="stroke:#000000;stroke-width:1.5;"/><line style="stroke:#000000;stroke-width:1.5;" x1="748" x2="874.5859" y1="344.5348" y2="344.5348"/><text fill="#000000" font-family="sans-serif" font-size="14" font-weight="bold" lengthAdjust="spacing" textLength="113.5859" x="752" y="337.0211">springframework</text></g><!--cluster stereotype--><g id="cluster_stereotype"><path d="M774.5,364.9137 L846.3066,364.9137 A3.75,3.75 0 0 1 848.8066,367.4137 L855.8066,389.5348 L879.5,389.5348 A2.5,2.5 0 0 1 882,392.0348 L882,447.4137 A2.5,2.5 0 0 1 879.5,449.9137 L774.5,449.9137 A2.5,2.5 0 0 1 772,447.4137 L772,367.4137 A2.5,2.5 0 0 1 774.5,364.9137 " fill="none" style="stroke:#000000;stroke-width:1.5;"/><line style="stroke:#000000;stroke-width:1.5;" x1="772" x2="855.8066" y1="389.5348" y2="389.5348"/><text fill="#000000" font-family="sans-serif" font-size="14" font-weight="bold" lengthAdjust="spacing" textLength="70.8066" x="776" y="382.0211">stereotype</text></g><!--cluster java--><g id="cluster_java"><path d="M247.5,6.0137 L275.748,6.0137 A3.75,3.75 0 0 1 278.248,8.5137 L285.248,30.6348 L505.5,30.6348 A2.5,2.5 0 0 1 508,33.1348 L508,157.5137 A2.5,2.5 0 0 1 505.5,160.0137 L247.5,160.0137 A2.5,2.5 0 0 1 245,157.5137 L245,8.5137 A2.5,2.5 0 0 1 247.5,6.0137 " fill="none" style="stroke:#000000;stroke-width:1.5;"/><line style="stroke:#000000;stroke-width:1.5;" x1="245" x2="285.248" y1="30.6348" y2="30.6348"/><text fill="#000000" font-family="sans-serif" font-size="14" font-weight="bold" lengthAdjust="spacing" textLength="27.248" x="249" y="23.1211">java</text></g><!--cluster util--><g id="cluster_util"><path d="M271.5,51.0137 L293.4932,51.0137 A3.75,3.75 0 0 1 295.9932,53.5137 L302.9932,75.6348 L481.5,75.6348 A2.5,2.5 0 0 1 484,78.1348 L484,133.5137 A2.5,2.5 0 0 1 481.5,136.0137 L271.5,136.0137 A2.5,2.5 0 0 1 269,133.5137 L269,53.5137 A2.5,2.5 0 0 1 271.5,51.0137 " fill="none" style="stroke:#000000;stroke-width:1.5;"/><line style="stroke:#000000;stroke-width:1.5;" x1="269" x2="302.9932" y1="75.6348" y2="75.6348"/><text fill="#000000" font-family="sans-serif" font-size="14" font-weight="bold" lengthAdjust="spacing" textLength="20.9932" x="273" y="68.1211">util</text></g><!--cluster com--><g id="cluster_com"><path d="M8.5,193.0137 L38.2861,193.0137 A3.75,3.75 0 0 1 40.7861,195.5137 L47.7861,217.6348 L697.5,217.6348 A2.5,2.5 0 0 1 700,220.1348 L700,731.9537 A2.5,2.5 0 0 1 697.5,734.4537 L8.5,734.4537 A2.5,2.5 0 0 1 6,731.9537 L6,195.5137 A2.5,2.5 0 0 1 8.5,193.0137 " fill="none" style="stroke:#000000;stroke-width:1.5;"/><line style="stroke:#000000;stroke-width:1.5;" x1="6" x2="47.7861" y1="217.6348" y2="217.6348"/><text fill="#000000" font-family="sans-serif" font-size="14" font-weight="bold" lengthAdjust="spacing" textLength="28.7861" x="10" y="210.1211">com</text></g><!--cluster acme--><g id="cluster_acme"><path d="M32.5,238.0137 L69.3066,238.0137 A3.75,3.75 0 0 1 71.8066,240.5137 L78.8066,262.6348 L673.5,262.6348 A2.5,2.5 0 0 1 676,265.1348 L676,707.9537 A2.5,2.5 0 0 1 673.5,710.4537 L32.5,710.4537 A2.5,2.5 0 0 1 30,707.9537 L30,240.5137 A2.5,2.5 0 0 1 32.5,238.0137 " fill="none" style="stroke:#000000;stroke-width:1.5;"/><line style="stroke:#000000;stroke-width:1.5;" x1="30" x2="78.8066" y1="262.6348" y2="262.6348"/><text fill="#000000" font-family="sans-serif" font-size="14" font-weight="bold" lengthAdjust="spacing" textLength="35.8066" x="34" y="255.1211">acme</text></g><!--cluster autohaus--><g id="cluster_autohaus"><path d="M56.5,283.0137 L119.7275,283.0137 A3.75,3.75 0 0 1 122.2275,285.5137 L129.2275,307.6348 L649.5,307.6348 A2.5,2.5 0 0 1 652,310.1348 L652,683.9537 A2.5,2.5 0 0 1 649.5,686.4537 L56.5,686.4537 A2.5,2.5 0 0 1 54,683.9537 L54,285.5137 A2.5,2.5 0 0 1 56.5,283.0137 " fill="none" style="stroke:#000000;stroke-width:1.5;"/><line style="stroke:#000000;stroke-width:1.5;" x1="54" x2="129.2275" y1="307.6348" y2="307.6348"/><text fill="#000000" font-family="sans-serif" font-size="14" font-weight="bold" lengthAdjust="spacing" textLength="62.2275" x="58" y="300.1211">autohaus</text></g><!--cluster entity--><g id="cluster_entity"><path d="M80.5,358.6237 L118.8379,358.6237 A3.75,3.75 0 0 1 121.3379,361.1237 L128.3379,383.2448 L199.5,383.2448 A2.5,2.5 0 0 1 202,385.7448 L202,453.7037 A2.5,2.5 0 0 1 199.5,456.2037 L80.5,456.2037 A2.5,2.5 0 0 1 78,453.7037 L78,361.1237 A2.5,2.5 0 0 1 80.5,358.6237 " fill="none" style="stroke:#000000;stroke-width:1.5;"/><line style="stroke:#000000;stroke-width:1.5;" x1="78" x2="128.3379" y1="383.2448" y2="383.2448"/><text fill="#000000" font-family="sans-serif" font-size="14" font-weight="bold" lengthAdjust="spacing" textLength="37.3379" x="82" y="375.7311">entity</text></g><!--cluster repository--><g id="cluster_repository"><path d="M334.5,548.9137 L403.9619,548.9137 A3.75,3.75 0 0 1 406.4619,551.4137 L413.4619,573.5348 L519.5,573.5348 A2.5,2.5 0 0 1 522,576.0348 L522,659.9537 A2.5,2.5 0 0 1 519.5,662.4537 L334.5,662.4537 A2.5,2.5 0 0 1 332,659.9537 L332,551.4137 A2.5,2.5 0 0 1 334.5,548.9137 " fill="none" style="stroke:#000000;stroke-width:1.5;"/><line style="stroke:#000000;stroke-width:1.5;" x1="332" x2="413.4619" y1="573.5348" y2="573.5348"/><text fill="#000000" font-family="sans-serif" font-size="14" font-weight="bold" lengthAdjust="spacing" textLength="68.4619" x="336" y="566.0211">repository</text></g><!--cluster service--><g id="cluster_service"><path d="M228.5,328.0137 L277.7686,328.0137 A3.75,3.75 0 0 1 280.2686,330.5137 L287.2686,352.6348 L625.5,352.6348 A2.5,2.5 0 0 1 628,355.1348 L628,484.3037 A2.5,2.5 0 0 1 625.5,486.8037 L228.5,486.8037 A2.5,2.5 0 0 1 226,484.3037 L226,330.5137 A2.5,2.5 0 0 1 228.5,328.0137 " fill="#DDDDDD" style="stroke:#000000;stroke-width:1.5;"/><line style="stroke:#000000;stroke-width:1.5;" x1="226" x2="287.2686" y1="352.6348" y2="352.6348"/><text fill="#000000" font-family="sans-serif" font-size="14" font-weight="bold" lengthAdjust="spacing" textLength="48.2686" x="230" y="345.1211">service</text></g><!--class Service--><g id="elem_Service"><rect codeLine="5" fill="#F1F1F1" height="32" id="Service" rx="2.5" ry="2.5" style="stroke:#181818;stroke-width:0.5;" width="78.6826" x="787.66" y="401.9137"/><ellipse cx="802.66" cy="417.9137" fill="#B4A7E5" rx="11" ry="11" style="stroke:#181818;stroke-width:1.0;"/><path d="M803.6131,414.5543 L803.6131,421.2105 L805.3319,421.2105 Q805.9413,421.2105 806.2069,421.4449 Q806.4725,421.6793 806.4725,422.0699 Q806.4725,422.4449 806.2069,422.6793 Q805.9413,422.9137 805.3319,422.9137 L800.1913,422.9137 Q799.5819,422.9137 799.3163,422.6793 Q799.0506,422.4449 799.0506,422.0543 Q799.0506,421.6793 799.3163,421.4449 Q799.5819,421.2105 800.1913,421.2105 L801.91,421.2105 L801.91,414.5543 L800.1913,414.5543 Q799.5819,414.5543 799.3163,414.3199 Q799.0506,414.0855 799.0506,413.6949 Q799.0506,413.3199 799.3163,413.0855 Q799.5819,412.8512 800.1913,412.8512 L805.3319,412.8512 Q805.9413,412.8512 806.2069,413.0855 Q806.4725,413.3199 806.4725,413.6949 Q806.4725,414.0855 806.2069,414.3199 Q805.9413,414.5543 805.3319,414.5543 L803.6131,414.5543 Z " fill="#000000"/><text fill="#000000" font-family="sans-serif" font-size="14" font-style="italic" lengthAdjust="spacing" textLength="46.6826" x="816.66" y="423.7105">Service</text></g><!--class List--><g id="elem_List"><rect codeLine="9" fill="#F1F1F1" height="32" id="List" rx="2.5" ry="2.5" style="stroke:#181818;stroke-width:0.5;" width="65.1162" x="285.44" y="88.0137"/><ellipse cx="300.44" cy="104.0137" fill="#B4A7E5" rx="11" ry="11" style="stroke:#181818;stroke-width:1.0;"/><path d="M301.3931,100.6543 L301.3931,107.3105 L303.1119,107.3105 Q303.7213,107.3105 303.9869,107.5449 Q304.2525,107.7793 304.2525,108.1699 Q304.2525,108.5449 303.9869,108.7793 Q303.7213,109.0137 303.1119,109.0137 L297.9713,109.0137 Q297.3619,109.0137 297.0963,108.7793 Q296.8306,108.5449 296.8306,108.1543 Q296.8306,107.7793 297.0963,107.5449 Q297.3619,107.3105 297.9713,107.3105 L299.69,107.3105 L299.69,100.6543 L297.9713,100.6543 Q297.3619,100.6543 297.0963,100.4199 Q296.8306,100.1855 296.8306,99.7949 Q296.8306,99.4199 297.0963,99.1855 Q297.3619,98.9512 297.9713,98.9512 L303.1119,98.9512 Q303.7213,98.9512 303.9869,99.1855 Q304.2525,99.4199 304.2525,99.7949 Q304.2525,100.1855 303.9869,100.4199 Q303.7213,100.6543 303.1119,100.6543 L301.3931,100.6543 Z " fill="#000000"/><text fill="#000000" font-family="sans-serif" font-size="14" font-style="italic" lengthAdjust="spacing" textLength="21.7861" x="314.44" y="109.8105">List</text><rect fill="#FFFFFF" height="17.9609" style="stroke:#181818;stroke-width:1.0;stroke-dasharray:2.0,2.0;" width="9.3301" x="344.2261" y="85.0137"/><text fill="#000000" font-family="sans-serif" font-size="12" font-style="italic" lengthAdjust="spacing" textLength="7.3301" x="345.2261" y="98.9629">T</text></g><!--class Map--><g id="elem_Map"><rect codeLine="10" fill="#F1F1F1" height="32" id="Map" rx="2.5" ry="2.5" style="stroke:#181818;stroke-width:0.5;" width="82.5762" x="385.71" y="88.0137"/><ellipse cx="400.71" cy="104.0137" fill="#B4A7E5" rx="11" ry="11" style="stroke:#181818;stroke-width:1.0;"/><path d="M401.6631,100.6543 L401.6631,107.3105 L403.3819,107.3105 Q403.9913,107.3105 404.2569,107.5449 Q404.5225,107.7793 404.5225,108.1699 Q404.5225,108.5449 404.2569,108.7793 Q403.9913,109.0137 403.3819,109.0137 L398.2413,109.0137 Q397.6319,109.0137 397.3663,108.7793 Q397.1006,108.5449 397.1006,108.1543 Q397.1006,107.7793 397.3663,107.5449 Q397.6319,107.3105 398.2413,107.3105 L399.96,107.3105 L399.96,100.6543 L398.2413,100.6543 Q397.6319,100.6543 397.3663,100.4199 Q397.1006,100.1855 397.1006,99.7949 Q397.1006,99.4199 397.3663,99.1855 Q397.6319,98.9512 398.2413,98.9512 L403.3819,98.9512 Q403.9913,98.9512 404.2569,99.1855 Q404.5225,99.4199 404.5225,99.7949 Q404.5225,100.1855 404.2569,100.4199 Q403.9913,100.6543 403.3819,100.6543 L401.6631,100.6543 Z " fill="#000000"/><text fill="#000000" font-family="sans-serif" font-size="14" font-style="italic" lengthAdjust="spacing" textLength="27.2344" x="414.71" y="109.8105">Map</text><rect fill="#FFFFFF" height="17.9609" style="stroke:#181818;stroke-width:1.0;stroke-dasharray:2.0,2.0;" width="21.3418" x="449.9444" y="85.0137"/><text fill="#000000" font-family="sans-serif" font-size="12" font-style="italic" lengthAdjust="spacing" textLength="19.3418" x="450.9444" y="98.9629">K,V</text></g><!--class Autohaus--><g id="elem_Autohaus"><rect codeLine="15" fill="#F1F1F1" height="44.582" id="Autohaus" rx="2.5" ry="2.5" style="stroke:#181818;stroke-width:0.5;" width="91.1582" x="94.42" y="395.6237"/><ellipse cx="109.42" cy="417.9147" fill="#ADD1B2" rx="11" ry="11" style="stroke:#181818;stroke-width:1.0;"/><path d="M112.1856,413.7897 Q112.3419,413.5709 112.5294,413.4616 Q112.7169,413.3522 112.9356,413.3522 Q113.3106,413.3522 113.545,413.6178 Q113.7794,413.8678 113.7794,414.4772 L113.7794,415.9303 Q113.7794,416.5397 113.545,416.8053 Q113.3106,417.0709 112.9356,417.0709 Q112.5919,417.0709 112.3888,416.8678 Q112.1856,416.6803 112.0763,416.1647 Q112.0294,415.8053 111.8419,415.6178 Q111.5138,415.2428 110.9044,415.0241 Q110.295,414.8053 109.67,414.8053 Q108.9044,414.8053 108.2638,415.1334 Q107.6388,415.4616 107.1388,416.2116 Q106.6544,416.9616 106.6544,417.9928 L106.6544,419.0866 Q106.6544,420.3209 107.545,421.1491 Q108.4356,421.9616 110.0294,421.9616 Q110.9669,421.9616 111.6231,421.7116 Q112.0138,421.5553 112.4356,421.1178 Q112.7013,420.8522 112.8419,420.7741 Q112.9981,420.6959 113.2013,420.6959 Q113.5294,420.6959 113.7794,420.9616 Q114.045,421.2116 114.045,421.5553 Q114.045,421.8991 113.7013,422.3053 Q113.2013,422.8834 112.4044,423.2116 Q111.3263,423.6647 110.0294,423.6647 Q108.5138,423.6647 107.3106,423.0397 Q106.3263,422.5397 105.6388,421.4772 Q104.9513,420.3991 104.9513,419.1178 L104.9513,417.9616 Q104.9513,416.6334 105.5606,415.4928 Q106.1856,414.3366 107.2794,413.7272 Q108.3731,413.1022 109.6075,413.1022 Q110.3419,413.1022 110.9825,413.2741 Q111.6388,413.4303 112.1856,413.7897 Z " fill="#000000"/><text fill="#000000" font-family="sans-serif" font-size="12" font-style="italic" lengthAdjust="spacing" textLength="42.0293" x="131.9845" y="413.5729">&#171;entity&#187;</text><text fill="#000000" font-family="sans-serif" font-size="14" lengthAdjust="spacing" textLength="59.1582" x="123.42" y="431.692">Autohaus</text></g><!--class AutohausRepository--><g id="elem_AutohausRepository"><rect codeLine="21" fill="#F1F1F1" height="60.543" id="AutohausRepository" rx="2.5" ry="2.5" style="stroke:#181818;stroke-width:0.5;" width="158.0752" x="347.96" y="585.9137"/><ellipse cx="362.96" cy="616.1852" fill="#ADD1B2" rx="11" ry="11" style="stroke:#181818;stroke-width:1.0;"/><path d="M365.7256,612.0602 Q365.8819,611.8414 366.0694,611.732 Q366.2569,611.6227 366.4756,611.6227 Q366.8506,611.6227 367.085,611.8883 Q367.3194,612.1383 367.3194,612.7477 L367.3194,614.2008 Q367.3194,614.8102 367.085,615.0758 Q366.8506,615.3414 366.4756,615.3414 Q366.1319,615.3414 365.9288,615.1383 Q365.7256,614.9508 365.6163,614.4352 Q365.5694,614.0758 365.3819,613.8883 Q365.0538,613.5133 364.4444,613.2945 Q363.835,613.0758 363.21,613.0758 Q362.4444,613.0758 361.8038,613.4039 Q361.1788,613.732 360.6788,614.482 Q360.1944,615.232 360.1944,616.2633 L360.1944,617.357 Q360.1944,618.5914 361.085,619.4195 Q361.9756,620.232 363.5694,620.232 Q364.5069,620.232 365.1631,619.982 Q365.5538,619.8258 365.9756,619.3883 Q366.2413,619.1227 366.3819,619.0445 Q366.5381,618.9664 366.7413,618.9664 Q367.0694,618.9664 367.3194,619.232 Q367.585,619.482 367.585,619.8258 Q367.585,620.1695 367.2413,620.5758 Q366.7413,621.1539 365.9444,621.482 Q364.8663,621.9352 363.5694,621.9352 Q362.0538,621.9352 360.8506,621.3102 Q359.8663,620.8102 359.1788,619.7477 Q358.4913,618.6695 358.4913,617.3883 L358.4913,616.232 Q358.4913,614.9039 359.1006,613.7633 Q359.7256,612.607 360.8194,611.9977 Q361.9131,611.3727 363.1475,611.3727 Q363.8819,611.3727 364.5225,611.5445 Q365.1788,611.7008 365.7256,612.0602 Z " fill="#000000"/><text fill="#000000" font-family="sans-serif" font-size="12" font-style="italic" lengthAdjust="spacing" textLength="49.3652" x="415.315" y="603.8629">&#171;control&#187;</text><text fill="#000000" font-family="sans-serif" font-size="12" font-style="italic" lengthAdjust="spacing" textLength="82.8867" x="398.5542" y="619.8238">&#171;@Repository&#187;</text><text fill="#000000" font-family="sans-serif" font-size="14" lengthAdjust="spacing" textLength="126.0752" x="376.96" y="637.943">AutohausRepository</text></g><!--class AutohausReadService--><g id="elem_AutohausReadService"><rect codeLine="25" fill="#F1F1F1" height="105.7852" id="AutohausReadService" rx="2.5" ry="2.5" style="stroke:#181818;stroke-width:0.5;" width="369.5811" x="242.21" y="365.0137"/><ellipse cx="353.0957" cy="395.2852" fill="#ADD1B2" rx="11" ry="11" style="stroke:#181818;stroke-width:1.0;"/><path d="M355.8614,391.1602 Q356.0176,390.9414 356.2051,390.832 Q356.3926,390.7227 356.6114,390.7227 Q356.9864,390.7227 357.2207,390.9883 Q357.4551,391.2383 357.4551,391.8477 L357.4551,393.3008 Q357.4551,393.9102 357.2207,394.1758 Q356.9864,394.4414 356.6114,394.4414 Q356.2676,394.4414 356.0645,394.2383 Q355.8614,394.0508 355.752,393.5352 Q355.7051,393.1758 355.5176,392.9883 Q355.1895,392.6133 354.5801,392.3945 Q353.9707,392.1758 353.3457,392.1758 Q352.5801,392.1758 351.9395,392.5039 Q351.3145,392.832 350.8145,393.582 Q350.3301,394.332 350.3301,395.3633 L350.3301,396.457 Q350.3301,397.6914 351.2207,398.5195 Q352.1114,399.332 353.7051,399.332 Q354.6426,399.332 355.2989,399.082 Q355.6895,398.9258 356.1114,398.4883 Q356.377,398.2227 356.5176,398.1445 Q356.6739,398.0664 356.877,398.0664 Q357.2051,398.0664 357.4551,398.332 Q357.7207,398.582 357.7207,398.9258 Q357.7207,399.2695 357.377,399.6758 Q356.877,400.2539 356.0801,400.582 Q355.002,401.0352 353.7051,401.0352 Q352.1895,401.0352 350.9864,400.4102 Q350.002,399.9102 349.3145,398.8477 Q348.627,397.7695 348.627,396.4883 L348.627,395.332 Q348.627,394.0039 349.2364,392.8633 Q349.8614,391.707 350.9551,391.0977 Q352.0489,390.4727 353.2832,390.4727 Q354.0176,390.4727 354.6582,390.6445 Q355.3145,390.8008 355.8614,391.1602 Z " fill="#000000"/><text fill="#000000" font-family="sans-serif" font-size="12" font-style="italic" lengthAdjust="spacing" textLength="49.3652" x="418.5679" y="382.9629">&#171;control&#187;</text><text fill="#000000" font-family="sans-serif" font-size="12" font-style="italic" lengthAdjust="spacing" textLength="65.543" x="410.479" y="398.9238">&#171;@Service&#187;</text><text fill="#000000" font-family="sans-serif" font-size="14" lengthAdjust="spacing" textLength="139.3096" x="373.5957" y="417.043">AutohausReadService</text><line style="stroke:#181818;stroke-width:0.5;" x1="243.21" x2="610.7911" y1="425.5566" y2="425.5566"/><text fill="#000000" font-family="sans-serif" font-size="14" lengthAdjust="spacing" textLength="357.5811" x="248.21" y="444.6641">+get(queryParams: Map&lt;String, String&gt;): List&lt;Autohaus&gt;</text><text fill="#000000" font-family="sans-serif" font-size="14" lengthAdjust="spacing" textLength="124.1133" x="248.21" y="463.2852">+getById(id: String):</text></g><!--reverse link List to Autohaus--><!--link AutohausReadService to AutohausRepository--><g id="link_AutohausReadService_AutohausRepository"><path codeLine="30" d="M427,483.2537 C427,519.8137 427,549.3137 427,579.5337 " fill="none" id="AutohausReadService-AutohausRepository" style="stroke:#181818;stroke-width:1.0;"/><polygon fill="none" points="427,471.2537,423,477.2537,427,483.2537,431,477.2537,427,471.2537" style="stroke:#181818;stroke-width:1.0;"/><polygon fill="#181818" points="427,585.5337,431,576.5337,427,580.5337,423,576.5337,427,585.5337" style="stroke:#181818;stroke-width:1.0;"/><text fill="#000000" font-family="sans-serif" font-size="13" lengthAdjust="spacing" textLength="26.019" x="428" y="528.942">repo</text></g><!--link AutohausReadService to Autohaus--><g id="link_AutohausReadService_Autohaus"><path codeLine="31" d="M241.99,417.9137 C223.31,417.9137 210.64,417.9137 191.96,417.9137 " fill="none" id="AutohausReadService-to-Autohaus" style="stroke:#181818;stroke-width:1.0;stroke-dasharray:7.0,7.0;"/><polygon fill="#181818" points="185.96,417.9137,194.96,421.9137,190.96,417.9137,194.96,413.9137,185.96,417.9137" style="stroke:#181818;stroke-width:1.0;"/></g><!--reverse link Service to AutohausReadService--><g id="link_Service_AutohausReadService"><path codeLine="32" d="M781.56,417.9137 C723.09,417.9137 670.62,417.9137 612.16,417.9137 " fill="none" id="Service-backto-AutohausReadService" style="stroke:#181818;stroke-width:1.0;stroke-dasharray:7.0,7.0;"/><polygon fill="#181818" points="787.56,417.9137,778.56,413.9137,782.56,417.9137,778.56,421.9137,787.56,417.9137" style="stroke:#181818;stroke-width:1.0;"/></g><!--reverse link List to AutohausReadService--><g id="link_List_AutohausReadService"><path codeLine="33" d="M325.3883,126.1482 C340.7583,170.1582 383.3,291.8837 408.7,364.5337 " fill="none" id="List-backto-AutohausReadService" style="stroke:#181818;stroke-width:1.0;stroke-dasharray:7.0,7.0;"/><polygon fill="#181818" points="323.41,120.4837,322.6011,130.2993,325.0586,125.2041,330.1537,127.6616,323.41,120.4837" style="stroke:#181818;stroke-width:1.0;"/></g><!--reverse link Map to AutohausReadService--><g id="link_Map_AutohausReadService"><path codeLine="34" d="M427,126.4837 C427,170.4937 427,291.8837 427,364.5337 " fill="none" id="Map-backto-AutohausReadService" style="stroke:#181818;stroke-width:1.0;stroke-dasharray:7.0,7.0;"/><polygon fill="#181818" points="427,120.4837,423,129.4837,427,125.4837,431,129.4837,427,120.4837" style="stroke:#181818;stroke-width:1.0;"/></g><text fill="#888888" font-family="sans-serif" font-size="10" lengthAdjust="spacing" textLength="86.1377" x="418.4312" y="751.2447">(c) Jonas Kirschner</text><!--SRC=[XL9DJyCm3BtdLqJYieajubnL4I0kOo0XXhWW3bdgjM5h4fnqgA3zTzAk7uEDuaiK-_czvDbkhRGLA78gDyAvA-zHBGiFCsdqGdq2lI342haMAL23ANCMbKvNeG4-3AwPyu1WV6c1VX4QGkcGMGa9T06uLHB8hcTu4rl12gysH-0xvNpyn7zbxuMDvvDdViWXJSw4p869mfjC5AxXQkkWlV9bawoY_XYzQj5nt48u9nseAxF2lcGgIK2_Cbu_gyRio0yH16kSyWR_5dhi8K4osEdHR89cTRiyA79-Ii3jpQDdDtKCg8YaCVg4J5i9rvwWYdEQWX-z5u3bGpLz5zLUBtmrtGdTdtmSxUVIYl5ZZkjobenK4ZKjuwY3x8xDFNoicKxvAQ-Ysjl1LeOgpJphsuVHXUNTBluBx0O-W0hAmQncQk6ROLt2skKsh5GE-HBG4R8o9Ymn7SanlJLQE3fNw6Ic0Sat]--></g></svg>
