<svg xmlns="http://www.w3.org/2000/svg" xmlns:xlink="http://www.w3.org/1999/xlink" contentStyleType="text/css" height="1198px" preserveAspectRatio="none" style="width:1475px;height:1198px;background:#FFFFFF;" version="1.1" viewBox="0 0 1475 1198" width="1475px" zoomAndPan="magnify"><defs/><g><!--cluster org--><g id="cluster_org"><path d="M8.5,6.0137 L32.0518,6.0137 A3.75,3.75 0 0 1 34.5518,8.5137 L41.5518,30.6348 L1465.5,30.6348 A2.5,2.5 0 0 1 1468,33.1348 L1468,364.5137 A2.5,2.5 0 0 1 1465.5,367.0137 L8.5,367.0137 A2.5,2.5 0 0 1 6,364.5137 L6,8.5137 A2.5,2.5 0 0 1 8.5,6.0137 " fill="none" style="stroke:#000000;stroke-width:1.5;"/><line style="stroke:#000000;stroke-width:1.5;" x1="6" x2="41.5518" y1="30.6348" y2="30.6348"/><text fill="#000000" font-family="sans-serif" font-size="14" font-weight="bold" lengthAdjust="spacing" textLength="22.5518" x="10" y="23.1211">org</text></g><!--cluster springframework--><g id="cluster_springframework"><path d="M32.5,51.0137 L147.0859,51.0137 A3.75,3.75 0 0 1 149.5859,53.5137 L156.5859,75.6348 L1441.5,75.6348 A2.5,2.5 0 0 1 1444,78.1348 L1444,340.5137 A2.5,2.5 0 0 1 1441.5,343.0137 L32.5,343.0137 A2.5,2.5 0 0 1 30,340.5137 L30,53.5137 A2.5,2.5 0 0 1 32.5,51.0137 " fill="none" style="stroke:#000000;stroke-width:1.5;"/><line style="stroke:#000000;stroke-width:1.5;" x1="30" x2="156.5859" y1="75.6348" y2="75.6348"/><text fill="#000000" font-family="sans-serif" font-size="14" font-weight="bold" lengthAdjust="spacing" textLength="113.5859" x="34" y="68.1211">springframework</text></g><!--cluster web--><g id="cluster_web"><path d="M56.5,96.0137 L84.7275,96.0137 A3.75,3.75 0 0 1 87.2275,98.5137 L94.2275,120.6348 L1213.5,120.6348 A2.5,2.5 0 0 1 1216,123.1348 L1216,316.5137 A2.5,2.5 0 0 1 1213.5,319.0137 L56.5,319.0137 A2.5,2.5 0 0 1 54,316.5137 L54,98.5137 A2.5,2.5 0 0 1 56.5,96.0137 " fill="none" style="stroke:#000000;stroke-width:1.5;"/><line style="stroke:#000000;stroke-width:1.5;" x1="54" x2="94.2275" y1="120.6348" y2="120.6348"/><text fill="#000000" font-family="sans-serif" font-size="14" font-weight="bold" lengthAdjust="spacing" textLength="27.2275" x="58" y="113.1211">web</text></g><!--cluster bind--><g id="cluster_bind"><path d="M80.5,141.0137 L111.0449,141.0137 A3.75,3.75 0 0 1 113.5449,143.5137 L120.5449,165.6348 L1189.5,165.6348 A2.5,2.5 0 0 1 1192,168.1348 L1192,292.5137 A2.5,2.5 0 0 1 1189.5,295.0137 L80.5,295.0137 A2.5,2.5 0 0 1 78,292.5137 L78,143.5137 A2.5,2.5 0 0 1 80.5,141.0137 " fill="none" style="stroke:#000000;stroke-width:1.5;"/><line style="stroke:#000000;stroke-width:1.5;" x1="78" x2="120.5449" y1="165.6348" y2="165.6348"/><text fill="#000000" font-family="sans-serif" font-size="14" font-weight="bold" lengthAdjust="spacing" textLength="29.5449" x="82" y="158.1211">bind</text></g><!--cluster annotation--><g id="cluster_annotation"><path d="M104.5,186.0137 L177.0449,186.0137 A3.75,3.75 0 0 1 179.5449,188.5137 L186.5449,210.6348 L1165.5,210.6348 A2.5,2.5 0 0 1 1168,213.1348 L1168,268.5137 A2.5,2.5 0 0 1 1165.5,271.0137 L104.5,271.0137 A2.5,2.5 0 0 1 102,268.5137 L102,188.5137 A2.5,2.5 0 0 1 104.5,186.0137 " fill="none" style="stroke:#000000;stroke-width:1.5;"/><line style="stroke:#000000;stroke-width:1.5;" x1="102" x2="186.5449" y1="210.6348" y2="210.6348"/><text fill="#000000" font-family="sans-serif" font-size="14" font-weight="bold" lengthAdjust="spacing" textLength="71.5449" x="106" y="203.1211">annotation</text></g><!--cluster util--><g id="cluster_util"><path d="M1242.5,186.0137 L1264.4932,186.0137 A3.75,3.75 0 0 1 1266.9932,188.5137 L1273.9932,210.6348 L1417.5,210.6348 A2.5,2.5 0 0 1 1420,213.1348 L1420,268.5137 A2.5,2.5 0 0 1 1417.5,271.0137 L1242.5,271.0137 A2.5,2.5 0 0 1 1240,268.5137 L1240,188.5137 A2.5,2.5 0 0 1 1242.5,186.0137 " fill="none" style="stroke:#000000;stroke-width:1.5;"/><line style="stroke:#000000;stroke-width:1.5;" x1="1240" x2="1273.9932" y1="210.6348" y2="210.6348"/><text fill="#000000" font-family="sans-serif" font-size="14" font-weight="bold" lengthAdjust="spacing" textLength="20.9932" x="1244" y="203.1211">util</text></g><!--cluster java--><g id="cluster_java"><path d="M1010.5,534.8837 L1038.748,534.8837 A3.75,3.75 0 0 1 1041.248,537.3837 L1048.248,559.5048 L1139.5,559.5048 A2.5,2.5 0 0 1 1142,562.0048 L1142,686.3837 A2.5,2.5 0 0 1 1139.5,688.8837 L1010.5,688.8837 A2.5,2.5 0 0 1 1008,686.3837 L1008,537.3837 A2.5,2.5 0 0 1 1010.5,534.8837 " fill="none" style="stroke:#000000;stroke-width:1.5;"/><line style="stroke:#000000;stroke-width:1.5;" x1="1008" x2="1048.248" y1="559.5048" y2="559.5048"/><text fill="#000000" font-family="sans-serif" font-size="14" font-weight="bold" lengthAdjust="spacing" textLength="27.248" x="1012" y="551.9911">java</text></g><!--cluster util--><g id="cluster_util"><path d="M1034.5,579.8837 L1056.4932,579.8837 A3.75,3.75 0 0 1 1058.9932,582.3837 L1065.9932,604.5048 L1115.5,604.5048 A2.5,2.5 0 0 1 1118,607.0048 L1118,662.3837 A2.5,2.5 0 0 1 1115.5,664.8837 L1034.5,664.8837 A2.5,2.5 0 0 1 1032,662.3837 L1032,582.3837 A2.5,2.5 0 0 1 1034.5,579.8837 " fill="none" style="stroke:#000000;stroke-width:1.5;"/><line style="stroke:#000000;stroke-width:1.5;" x1="1032" x2="1065.9932" y1="604.5048" y2="604.5048"/><text fill="#000000" font-family="sans-serif" font-size="14" font-weight="bold" lengthAdjust="spacing" textLength="20.9932" x="1036" y="596.9911">util</text></g><!--cluster com--><g id="cluster_com"><path d="M124.5,400.0137 L154.2861,400.0137 A3.75,3.75 0 0 1 156.7861,402.5137 L163.7861,424.6348 L935.5,424.6348 A2.5,2.5 0 0 1 938,427.1348 L938,1169.0037 A2.5,2.5 0 0 1 935.5,1171.5037 L124.5,1171.5037 A2.5,2.5 0 0 1 122,1169.0037 L122,402.5137 A2.5,2.5 0 0 1 124.5,400.0137 " fill="none" style="stroke:#000000;stroke-width:1.5;"/><line style="stroke:#000000;stroke-width:1.5;" x1="122" x2="163.7861" y1="424.6348" y2="424.6348"/><text fill="#000000" font-family="sans-serif" font-size="14" font-weight="bold" lengthAdjust="spacing" textLength="28.7861" x="126" y="417.1211">com</text></g><!--cluster acme--><g id="cluster_acme"><path d="M148.5,445.0137 L185.3066,445.0137 A3.75,3.75 0 0 1 187.8066,447.5137 L194.8066,469.6348 L911.5,469.6348 A2.5,2.5 0 0 1 914,472.1348 L914,1145.0037 A2.5,2.5 0 0 1 911.5,1147.5037 L148.5,1147.5037 A2.5,2.5 0 0 1 146,1145.0037 L146,447.5137 A2.5,2.5 0 0 1 148.5,445.0137 " fill="none" style="stroke:#000000;stroke-width:1.5;"/><line style="stroke:#000000;stroke-width:1.5;" x1="146" x2="194.8066" y1="469.6348" y2="469.6348"/><text fill="#000000" font-family="sans-serif" font-size="14" font-weight="bold" lengthAdjust="spacing" textLength="35.8066" x="150" y="462.1211">acme</text></g><!--cluster autohaus--><g id="cluster_autohaus"><path d="M172.5,490.0137 L235.7275,490.0137 A3.75,3.75 0 0 1 238.2275,492.5137 L245.2275,514.6348 L887.5,514.6348 A2.5,2.5 0 0 1 890,517.1348 L890,1121.0037 A2.5,2.5 0 0 1 887.5,1123.5037 L172.5,1123.5037 A2.5,2.5 0 0 1 170,1121.0037 L170,492.5137 A2.5,2.5 0 0 1 172.5,490.0137 " fill="none" style="stroke:#000000;stroke-width:1.5;"/><line style="stroke:#000000;stroke-width:1.5;" x1="170" x2="245.2275" y1="514.6348" y2="514.6348"/><text fill="#000000" font-family="sans-serif" font-size="14" font-weight="bold" lengthAdjust="spacing" textLength="62.2275" x="174" y="507.1211">autohaus</text></g><!--cluster service--><g id="cluster_service"><path d="M246.5,985.9637 L295.7686,985.9637 A3.75,3.75 0 0 1 298.2686,988.4637 L305.2686,1010.5848 L634.5,1010.5848 A2.5,2.5 0 0 1 637,1013.0848 L637,1097.0037 A2.5,2.5 0 0 1 634.5,1099.5037 L246.5,1099.5037 A2.5,2.5 0 0 1 244,1097.0037 L244,988.4637 A2.5,2.5 0 0 1 246.5,985.9637 " fill="none" style="stroke:#000000;stroke-width:1.5;"/><line style="stroke:#000000;stroke-width:1.5;" x1="244" x2="305.2686" y1="1010.5848" y2="1010.5848"/><text fill="#000000" font-family="sans-serif" font-size="14" font-weight="bold" lengthAdjust="spacing" textLength="48.2686" x="248" y="1003.0711">service</text></g><!--cluster rest--><g id="cluster_rest"><path d="M196.5,535.0137 L223.1826,535.0137 A3.75,3.75 0 0 1 225.6826,537.5137 L232.6826,559.6348 L863.5,559.6348 A2.5,2.5 0 0 1 866,562.1348 L866,950.4637 A2.5,2.5 0 0 1 863.5,952.9637 L196.5,952.9637 A2.5,2.5 0 0 1 194,950.4637 L194,537.5137 A2.5,2.5 0 0 1 196.5,535.0137 " fill="#DDDDDD" style="stroke:#000000;stroke-width:1.5;"/><line style="stroke:#000000;stroke-width:1.5;" x1="194" x2="232.6826" y1="559.6348" y2="559.6348"/><text fill="#000000" font-family="sans-serif" font-size="14" font-weight="bold" lengthAdjust="spacing" textLength="25.6826" x="198" y="552.1211">rest</text></g><!--class RestController--><g id="elem_RestController"><rect codeLine="6" fill="#F1F1F1" height="32" id="RestController" rx="2.5" ry="2.5" style="stroke:#181818;stroke-width:0.5;" width="135.6875" x="641.16" y="223.0137"/><ellipse cx="656.16" cy="239.0137" fill="#B4A7E5" rx="11" ry="11" style="stroke:#181818;stroke-width:1.0;"/><path d="M657.1131,235.6543 L657.1131,242.3105 L658.8319,242.3105 Q659.4413,242.3105 659.7069,242.5449 Q659.9725,242.7793 659.9725,243.1699 Q659.9725,243.5449 659.7069,243.7793 Q659.4413,244.0137 658.8319,244.0137 L653.6913,244.0137 Q653.0819,244.0137 652.8163,243.7793 Q652.5506,243.5449 652.5506,243.1543 Q652.5506,242.7793 652.8163,242.5449 Q653.0819,242.3105 653.6913,242.3105 L655.41,242.3105 L655.41,235.6543 L653.6913,235.6543 Q653.0819,235.6543 652.8163,235.4199 Q652.5506,235.1855 652.5506,234.7949 Q652.5506,234.4199 652.8163,234.1855 Q653.0819,233.9512 653.6913,233.9512 L658.8319,233.9512 Q659.4413,233.9512 659.7069,234.1855 Q659.9725,234.4199 659.9725,234.7949 Q659.9725,235.1855 659.7069,235.4199 Q659.4413,235.6543 658.8319,235.6543 L657.1131,235.6543 Z " fill="#000000"/><text fill="#000000" font-family="sans-serif" font-size="14" font-style="italic" lengthAdjust="spacing" textLength="103.6875" x="670.16" y="244.8105">@RestController</text></g><!--class RequestMapping--><g id="elem_RequestMapping"><rect codeLine="7" fill="#F1F1F1" height="32" id="RequestMapping" rx="2.5" ry="2.5" style="stroke:#181818;stroke-width:0.5;" width="152.0596" x="453.97" y="223.0137"/><ellipse cx="468.97" cy="239.0137" fill="#B4A7E5" rx="11" ry="11" style="stroke:#181818;stroke-width:1.0;"/><path d="M469.9231,235.6543 L469.9231,242.3105 L471.6419,242.3105 Q472.2513,242.3105 472.5169,242.5449 Q472.7825,242.7793 472.7825,243.1699 Q472.7825,243.5449 472.5169,243.7793 Q472.2513,244.0137 471.6419,244.0137 L466.5013,244.0137 Q465.8919,244.0137 465.6263,243.7793 Q465.3606,243.5449 465.3606,243.1543 Q465.3606,242.7793 465.6263,242.5449 Q465.8919,242.3105 466.5013,242.3105 L468.22,242.3105 L468.22,235.6543 L466.5013,235.6543 Q465.8919,235.6543 465.6263,235.4199 Q465.3606,235.1855 465.3606,234.7949 Q465.3606,234.4199 465.6263,234.1855 Q465.8919,233.9512 466.5013,233.9512 L471.6419,233.9512 Q472.2513,233.9512 472.5169,234.1855 Q472.7825,234.4199 472.7825,234.7949 Q472.7825,235.1855 472.5169,235.4199 Q472.2513,235.6543 471.6419,235.6543 L469.9231,235.6543 Z " fill="#000000"/><text fill="#000000" font-family="sans-serif" font-size="14" font-style="italic" lengthAdjust="spacing" textLength="120.0596" x="482.97" y="244.8105">@RequestMapping</text></g><!--class PathVariable--><g id="elem_PathVariable"><rect codeLine="8" fill="#F1F1F1" height="32" id="PathVariable" rx="2.5" ry="2.5" style="stroke:#181818;stroke-width:0.5;" width="126.377" x="292.81" y="223.0137"/><ellipse cx="307.81" cy="239.0137" fill="#B4A7E5" rx="11" ry="11" style="stroke:#181818;stroke-width:1.0;"/><path d="M308.7631,235.6543 L308.7631,242.3105 L310.4819,242.3105 Q311.0913,242.3105 311.3569,242.5449 Q311.6225,242.7793 311.6225,243.1699 Q311.6225,243.5449 311.3569,243.7793 Q311.0913,244.0137 310.4819,244.0137 L305.3413,244.0137 Q304.7319,244.0137 304.4663,243.7793 Q304.2006,243.5449 304.2006,243.1543 Q304.2006,242.7793 304.4663,242.5449 Q304.7319,242.3105 305.3413,242.3105 L307.06,242.3105 L307.06,235.6543 L305.3413,235.6543 Q304.7319,235.6543 304.4663,235.4199 Q304.2006,235.1855 304.2006,234.7949 Q304.2006,234.4199 304.4663,234.1855 Q304.7319,233.9512 305.3413,233.9512 L310.4819,233.9512 Q311.0913,233.9512 311.3569,234.1855 Q311.6225,234.4199 311.6225,234.7949 Q311.6225,235.1855 311.3569,235.4199 Q311.0913,235.6543 310.4819,235.6543 L308.7631,235.6543 Z " fill="#000000"/><text fill="#000000" font-family="sans-serif" font-size="14" font-style="italic" lengthAdjust="spacing" textLength="94.377" x="321.81" y="244.8105">@PathVariable</text></g><!--class RequestParam--><g id="elem_RequestParam"><rect codeLine="9" fill="#F1F1F1" height="32" id="RequestParam" rx="2.5" ry="2.5" style="stroke:#181818;stroke-width:0.5;" width="139.5908" x="118.2" y="223.0137"/><ellipse cx="133.2" cy="239.0137" fill="#B4A7E5" rx="11" ry="11" style="stroke:#181818;stroke-width:1.0;"/><path d="M134.1531,235.6543 L134.1531,242.3105 L135.8719,242.3105 Q136.4813,242.3105 136.7469,242.5449 Q137.0125,242.7793 137.0125,243.1699 Q137.0125,243.5449 136.7469,243.7793 Q136.4813,244.0137 135.8719,244.0137 L130.7313,244.0137 Q130.1219,244.0137 129.8563,243.7793 Q129.5906,243.5449 129.5906,243.1543 Q129.5906,242.7793 129.8563,242.5449 Q130.1219,242.3105 130.7313,242.3105 L132.45,242.3105 L132.45,235.6543 L130.7313,235.6543 Q130.1219,235.6543 129.8563,235.4199 Q129.5906,235.1855 129.5906,234.7949 Q129.5906,234.4199 129.8563,234.1855 Q130.1219,233.9512 130.7313,233.9512 L135.8719,233.9512 Q136.4813,233.9512 136.7469,234.1855 Q137.0125,234.4199 137.0125,234.7949 Q137.0125,235.1855 136.7469,235.4199 Q136.4813,235.6543 135.8719,235.6543 L134.1531,235.6543 Z " fill="#000000"/><text fill="#000000" font-family="sans-serif" font-size="14" font-style="italic" lengthAdjust="spacing" textLength="107.5908" x="147.2" y="244.8105">@RequestParam</text></g><!--class ExceptionHandler--><g id="elem_ExceptionHandler"><rect codeLine="10" fill="#F1F1F1" height="32" id="ExceptionHandler" rx="2.5" ry="2.5" style="stroke:#181818;stroke-width:0.5;" width="156.7217" x="995.64" y="223.0137"/><ellipse cx="1010.64" cy="239.0137" fill="#B4A7E5" rx="11" ry="11" style="stroke:#181818;stroke-width:1.0;"/><path d="M1011.5931,235.6543 L1011.5931,242.3105 L1013.3119,242.3105 Q1013.9213,242.3105 1014.1869,242.5449 Q1014.4525,242.7793 1014.4525,243.1699 Q1014.4525,243.5449 1014.1869,243.7793 Q1013.9213,244.0137 1013.3119,244.0137 L1008.1713,244.0137 Q1007.5619,244.0137 1007.2963,243.7793 Q1007.0306,243.5449 1007.0306,243.1543 Q1007.0306,242.7793 1007.2963,242.5449 Q1007.5619,242.3105 1008.1713,242.3105 L1009.89,242.3105 L1009.89,235.6543 L1008.1713,235.6543 Q1007.5619,235.6543 1007.2963,235.4199 Q1007.0306,235.1855 1007.0306,234.7949 Q1007.0306,234.4199 1007.2963,234.1855 Q1007.5619,233.9512 1008.1713,233.9512 L1013.3119,233.9512 Q1013.9213,233.9512 1014.1869,234.1855 Q1014.4525,234.4199 1014.4525,234.7949 Q1014.4525,235.1855 1014.1869,235.4199 Q1013.9213,235.6543 1013.3119,235.6543 L1011.5931,235.6543 Z " fill="#000000"/><text fill="#000000" font-family="sans-serif" font-size="14" font-style="italic" lengthAdjust="spacing" textLength="124.7217" x="1024.64" y="244.8105">@ExceptionHandler</text></g><!--class ResponseStatus--><g id="elem_ResponseStatus"><rect codeLine="11" fill="#F1F1F1" height="32" id="ResponseStatus" rx="2.5" ry="2.5" style="stroke:#181818;stroke-width:0.5;" width="148.9424" x="811.53" y="223.0137"/><ellipse cx="826.53" cy="239.0137" fill="#B4A7E5" rx="11" ry="11" style="stroke:#181818;stroke-width:1.0;"/><path d="M827.4831,235.6543 L827.4831,242.3105 L829.2019,242.3105 Q829.8113,242.3105 830.0769,242.5449 Q830.3425,242.7793 830.3425,243.1699 Q830.3425,243.5449 830.0769,243.7793 Q829.8113,244.0137 829.2019,244.0137 L824.0613,244.0137 Q823.4519,244.0137 823.1863,243.7793 Q822.9206,243.5449 822.9206,243.1543 Q822.9206,242.7793 823.1863,242.5449 Q823.4519,242.3105 824.0613,242.3105 L825.78,242.3105 L825.78,235.6543 L824.0613,235.6543 Q823.4519,235.6543 823.1863,235.4199 Q822.9206,235.1855 822.9206,234.7949 Q822.9206,234.4199 823.1863,234.1855 Q823.4519,233.9512 824.0613,233.9512 L829.2019,233.9512 Q829.8113,233.9512 830.0769,234.1855 Q830.3425,234.4199 830.3425,234.7949 Q830.3425,235.1855 830.0769,235.4199 Q829.8113,235.6543 829.2019,235.6543 L827.4831,235.6543 Z " fill="#000000"/><text fill="#000000" font-family="sans-serif" font-size="14" font-style="italic" lengthAdjust="spacing" textLength="116.9424" x="840.53" y="244.8105">@ResponseStatus</text></g><!--class MultiValueMap--><g id="elem_MultiValueMap"><rect codeLine="15" fill="#F1F1F1" height="32" id="MultiValueMap" rx="2.5" ry="2.5" style="stroke:#181818;stroke-width:0.5;" width="147.9414" x="1256.03" y="223.0137"/><ellipse cx="1271.03" cy="239.0137" fill="#ADD1B2" rx="11" ry="11" style="stroke:#181818;stroke-width:1.0;"/><path d="M1273.7956,234.8887 Q1273.9519,234.6699 1274.1394,234.5605 Q1274.3269,234.4512 1274.5456,234.4512 Q1274.9206,234.4512 1275.155,234.7168 Q1275.3894,234.9668 1275.3894,235.5762 L1275.3894,237.0293 Q1275.3894,237.6387 1275.155,237.9043 Q1274.9206,238.1699 1274.5456,238.1699 Q1274.2019,238.1699 1273.9988,237.9668 Q1273.7956,237.7793 1273.6863,237.2637 Q1273.6394,236.9043 1273.4519,236.7168 Q1273.1238,236.3418 1272.5144,236.123 Q1271.905,235.9043 1271.28,235.9043 Q1270.5144,235.9043 1269.8738,236.2324 Q1269.2488,236.5605 1268.7488,237.3105 Q1268.2644,238.0605 1268.2644,239.0918 L1268.2644,240.1855 Q1268.2644,241.4199 1269.155,242.248 Q1270.0456,243.0605 1271.6394,243.0605 Q1272.5769,243.0605 1273.2331,242.8105 Q1273.6238,242.6543 1274.0456,242.2168 Q1274.3113,241.9512 1274.4519,241.873 Q1274.6081,241.7949 1274.8113,241.7949 Q1275.1394,241.7949 1275.3894,242.0605 Q1275.655,242.3105 1275.655,242.6543 Q1275.655,242.998 1275.3113,243.4043 Q1274.8113,243.9824 1274.0144,244.3105 Q1272.9363,244.7637 1271.6394,244.7637 Q1270.1238,244.7637 1268.9206,244.1387 Q1267.9363,243.6387 1267.2488,242.5762 Q1266.5613,241.498 1266.5613,240.2168 L1266.5613,239.0605 Q1266.5613,237.7324 1267.1706,236.5918 Q1267.7956,235.4355 1268.8894,234.8262 Q1269.9831,234.2012 1271.2175,234.2012 Q1271.9519,234.2012 1272.5925,234.373 Q1273.2488,234.5293 1273.7956,234.8887 Z " fill="#000000"/><text fill="#000000" font-family="sans-serif" font-size="14" lengthAdjust="spacing" textLength="92.5996" x="1285.03" y="244.8105">MultiValueMap</text><rect fill="#FFFFFF" height="17.9609" style="stroke:#181818;stroke-width:1.0;stroke-dasharray:2.0,2.0;" width="21.3418" x="1385.6296" y="220.0137"/><text fill="#000000" font-family="sans-serif" font-size="12" font-style="italic" lengthAdjust="spacing" textLength="19.3418" x="1386.6296" y="233.9629">K,V</text></g><!--class List--><g id="elem_List"><rect codeLine="20" fill="#F1F1F1" height="32" id="List" rx="2.5" ry="2.5" style="stroke:#181818;stroke-width:0.5;" width="53.7861" x="1048.11" y="616.8837"/><ellipse cx="1063.11" cy="632.8837" fill="#ADD1B2" rx="11" ry="11" style="stroke:#181818;stroke-width:1.0;"/><path d="M1065.8756,628.7587 Q1066.0319,628.5399 1066.2194,628.4305 Q1066.4069,628.3212 1066.6256,628.3212 Q1067.0006,628.3212 1067.235,628.5868 Q1067.4694,628.8368 1067.4694,629.4462 L1067.4694,630.8993 Q1067.4694,631.5087 1067.235,631.7743 Q1067.0006,632.0399 1066.6256,632.0399 Q1066.2819,632.0399 1066.0788,631.8368 Q1065.8756,631.6493 1065.7663,631.1337 Q1065.7194,630.7743 1065.5319,630.5868 Q1065.2038,630.2118 1064.5944,629.993 Q1063.985,629.7743 1063.36,629.7743 Q1062.5944,629.7743 1061.9538,630.1024 Q1061.3288,630.4305 1060.8288,631.1805 Q1060.3444,631.9305 1060.3444,632.9618 L1060.3444,634.0555 Q1060.3444,635.2899 1061.235,636.118 Q1062.1256,636.9305 1063.7194,636.9305 Q1064.6569,636.9305 1065.3131,636.6805 Q1065.7038,636.5243 1066.1256,636.0868 Q1066.3913,635.8212 1066.5319,635.743 Q1066.6881,635.6649 1066.8913,635.6649 Q1067.2194,635.6649 1067.4694,635.9305 Q1067.735,636.1805 1067.735,636.5243 Q1067.735,636.868 1067.3913,637.2743 Q1066.8913,637.8524 1066.0944,638.1805 Q1065.0163,638.6337 1063.7194,638.6337 Q1062.2038,638.6337 1061.0006,638.0087 Q1060.0163,637.5087 1059.3288,636.4462 Q1058.6413,635.368 1058.6413,634.0868 L1058.6413,632.9305 Q1058.6413,631.6024 1059.2506,630.4618 Q1059.8756,629.3055 1060.9694,628.6962 Q1062.0631,628.0712 1063.2975,628.0712 Q1064.0319,628.0712 1064.6725,628.243 Q1065.3288,628.3993 1065.8756,628.7587 Z " fill="#000000"/><text fill="#000000" font-family="sans-serif" font-size="14" lengthAdjust="spacing" textLength="21.7861" x="1077.11" y="638.6805">List</text></g><!--class AutohausReadService--><g id="elem_AutohausReadService"><rect codeLine="25" fill="#F1F1F1" height="60.543" id="AutohausReadService" rx="2.5" ry="2.5" style="stroke:#181818;stroke-width:0.5;" width="171.3096" x="260.35" y="1022.9637"/><ellipse cx="275.35" cy="1053.2352" fill="#ADD1B2" rx="11" ry="11" style="stroke:#181818;stroke-width:1.0;"/><path d="M278.1156,1049.1102 Q278.2719,1048.8914 278.4594,1048.782 Q278.6469,1048.6727 278.8656,1048.6727 Q279.2406,1048.6727 279.475,1048.9383 Q279.7094,1049.1883 279.7094,1049.7977 L279.7094,1051.2508 Q279.7094,1051.8602 279.475,1052.1258 Q279.2406,1052.3914 278.8656,1052.3914 Q278.5219,1052.3914 278.3188,1052.1883 Q278.1156,1052.0008 278.0063,1051.4852 Q277.9594,1051.1258 277.7719,1050.9383 Q277.4438,1050.5633 276.8344,1050.3445 Q276.225,1050.1258 275.6,1050.1258 Q274.8344,1050.1258 274.1938,1050.4539 Q273.5688,1050.782 273.0688,1051.532 Q272.5844,1052.282 272.5844,1053.3133 L272.5844,1054.407 Q272.5844,1055.6414 273.475,1056.4695 Q274.3656,1057.282 275.9594,1057.282 Q276.8969,1057.282 277.5531,1057.032 Q277.9438,1056.8758 278.3656,1056.4383 Q278.6313,1056.1727 278.7719,1056.0945 Q278.9281,1056.0164 279.1313,1056.0164 Q279.4594,1056.0164 279.7094,1056.282 Q279.975,1056.532 279.975,1056.8758 Q279.975,1057.2195 279.6313,1057.6258 Q279.1313,1058.2039 278.3344,1058.532 Q277.2563,1058.9852 275.9594,1058.9852 Q274.4438,1058.9852 273.2406,1058.3602 Q272.2563,1057.8602 271.5688,1056.7977 Q270.8813,1055.7195 270.8813,1054.4383 L270.8813,1053.282 Q270.8813,1051.9539 271.4906,1050.8133 Q272.1156,1049.657 273.2094,1049.0477 Q274.3031,1048.4227 275.5375,1048.4227 Q276.2719,1048.4227 276.9125,1048.5945 Q277.5688,1048.7508 278.1156,1049.1102 Z " fill="#000000"/><text fill="#000000" font-family="sans-serif" font-size="12" font-style="italic" lengthAdjust="spacing" textLength="49.3652" x="334.3222" y="1040.9129">&#171;control&#187;</text><text fill="#000000" font-family="sans-serif" font-size="12" font-style="italic" lengthAdjust="spacing" textLength="65.543" x="326.2333" y="1056.8738">&#171;@Service&#187;</text><text fill="#000000" font-family="sans-serif" font-size="14" lengthAdjust="spacing" textLength="139.3096" x="289.35" y="1074.993">AutohausReadService</text></g><!--class NotFoundException--><g id="elem_NotFoundException"><rect codeLine="26" fill="#F1F1F1" height="32" id="NotFoundException" rx="2.5" ry="2.5" style="stroke:#181818;stroke-width:0.5;" width="154.9648" x="466.52" y="1037.2337"/><ellipse cx="481.52" cy="1053.2337" fill="#ADD1B2" rx="11" ry="11" style="stroke:#181818;stroke-width:1.0;"/><path d="M484.2856,1049.1087 Q484.4419,1048.8899 484.6294,1048.7805 Q484.8169,1048.6712 485.0356,1048.6712 Q485.4106,1048.6712 485.645,1048.9368 Q485.8794,1049.1868 485.8794,1049.7962 L485.8794,1051.2493 Q485.8794,1051.8587 485.645,1052.1243 Q485.4106,1052.3899 485.0356,1052.3899 Q484.6919,1052.3899 484.4888,1052.1868 Q484.2856,1051.9993 484.1763,1051.4837 Q484.1294,1051.1243 483.9419,1050.9368 Q483.6138,1050.5618 483.0044,1050.343 Q482.395,1050.1243 481.77,1050.1243 Q481.0044,1050.1243 480.3638,1050.4524 Q479.7388,1050.7805 479.2388,1051.5305 Q478.7544,1052.2805 478.7544,1053.3118 L478.7544,1054.4055 Q478.7544,1055.6399 479.645,1056.468 Q480.5356,1057.2805 482.1294,1057.2805 Q483.0669,1057.2805 483.7231,1057.0305 Q484.1138,1056.8743 484.5356,1056.4368 Q484.8013,1056.1712 484.9419,1056.093 Q485.0981,1056.0149 485.3013,1056.0149 Q485.6294,1056.0149 485.8794,1056.2805 Q486.145,1056.5305 486.145,1056.8743 Q486.145,1057.218 485.8013,1057.6243 Q485.3013,1058.2024 484.5044,1058.5305 Q483.4263,1058.9837 482.1294,1058.9837 Q480.6138,1058.9837 479.4106,1058.3587 Q478.4263,1057.8587 477.7388,1056.7962 Q477.0513,1055.718 477.0513,1054.4368 L477.0513,1053.2805 Q477.0513,1051.9524 477.6606,1050.8118 Q478.2856,1049.6555 479.3794,1049.0462 Q480.4731,1048.4212 481.7075,1048.4212 Q482.4419,1048.4212 483.0825,1048.593 Q483.7388,1048.7493 484.2856,1049.1087 Z " fill="#000000"/><text fill="#000000" font-family="sans-serif" font-size="14" lengthAdjust="spacing" textLength="122.9648" x="495.52" y="1059.0305">NotFoundException</text></g><!--class AutohausGetController--><g id="elem_AutohausGetController"><rect codeLine="30" fill="#F1F1F1" height="121.7461" id="AutohausGetController" rx="2.5" ry="2.5" style="stroke:#181818;stroke-width:0.5;" width="640.7969" x="209.6" y="572.0137"/><ellipse cx="454.5419" cy="610.2656" fill="#ADD1B2" rx="11" ry="11" style="stroke:#181818;stroke-width:1.0;"/><path d="M457.3075,606.1406 Q457.4638,605.9219 457.6513,605.8125 Q457.8388,605.7031 458.0575,605.7031 Q458.4325,605.7031 458.6669,605.9688 Q458.9013,606.2188 458.9013,606.8281 L458.9013,608.2813 Q458.9013,608.8906 458.6669,609.1563 Q458.4325,609.4219 458.0575,609.4219 Q457.7138,609.4219 457.5106,609.2188 Q457.3075,609.0313 457.1981,608.5156 Q457.1513,608.1563 456.9638,607.9688 Q456.6356,607.5938 456.0263,607.375 Q455.4169,607.1563 454.7919,607.1563 Q454.0263,607.1563 453.3856,607.4844 Q452.7606,607.8125 452.2606,608.5625 Q451.7763,609.3125 451.7763,610.3438 L451.7763,611.4375 Q451.7763,612.6719 452.6669,613.5 Q453.5575,614.3125 455.1513,614.3125 Q456.0888,614.3125 456.745,614.0625 Q457.1356,613.9063 457.5575,613.4688 Q457.8231,613.2031 457.9638,613.125 Q458.12,613.0469 458.3231,613.0469 Q458.6513,613.0469 458.9013,613.3125 Q459.1669,613.5625 459.1669,613.9063 Q459.1669,614.25 458.8231,614.6563 Q458.3231,615.2344 457.5263,615.5625 Q456.4481,616.0156 455.1513,616.0156 Q453.6356,616.0156 452.4325,615.3906 Q451.4481,614.8906 450.7606,613.8281 Q450.0731,612.75 450.0731,611.4688 L450.0731,610.3125 Q450.0731,608.9844 450.6825,607.8438 Q451.3075,606.6875 452.4013,606.0781 Q453.495,605.4531 454.7294,605.4531 Q455.4638,605.4531 456.1044,605.625 Q456.7606,605.7813 457.3075,606.1406 Z " fill="#000000"/><text fill="#000000" font-family="sans-serif" font-size="12" font-style="italic" lengthAdjust="spacing" textLength="63.3867" x="514.5551" y="589.9629">&#171;boundary&#187;</text><text fill="#000000" font-family="sans-serif" font-size="12" font-style="italic" lengthAdjust="spacing" textLength="102.2227" x="495.1371" y="605.9238">&#171;@RestController&#187;</text><text fill="#000000" font-family="sans-serif" font-size="12" font-style="italic" lengthAdjust="spacing" textLength="116.2559" x="488.1205" y="621.8848">&#171;@RequestMapping&#187;</text><text fill="#000000" font-family="sans-serif" font-size="14" lengthAdjust="spacing" textLength="142.4131" x="475.0419" y="640.0039">AutohausGetController</text><line style="stroke:#181818;stroke-width:0.5;" x1="210.6" x2="849.3969" y1="648.5176" y2="648.5176"/><text fill="#000000" font-family="sans-serif" font-size="14" lengthAdjust="spacing" textLength="628.7969" x="215.6" y="667.625">+@GetMapping get(@RequestParam queryParams: MultiValueMap&lt;String, String&gt;): List&lt;Autohaus&gt;</text><text fill="#000000" font-family="sans-serif" font-size="14" lengthAdjust="spacing" textLength="379.7979" x="215.6" y="686.2461">+@GetMapping getById(@PathVariable id: String): Autohaus</text></g><!--class CommonExceptionHandler--><g id="elem_CommonExceptionHandler"><rect codeLine="35" fill="#F1F1F1" height="71.2031" id="CommonExceptionHandler" rx="2.5" ry="2.5" style="stroke:#181818;stroke-width:0.5;" width="501.5283" x="293.24" y="865.7537"/><ellipse cx="456.1028" cy="888.0447" fill="#ADD1B2" rx="11" ry="11" style="stroke:#181818;stroke-width:1.0;"/><path d="M458.8684,883.9197 Q459.0247,883.7009 459.2122,883.5916 Q459.3997,883.4822 459.6184,883.4822 Q459.9934,883.4822 460.2278,883.7478 Q460.4622,883.9978 460.4622,884.6072 L460.4622,886.0603 Q460.4622,886.6697 460.2278,886.9353 Q459.9934,887.2009 459.6184,887.2009 Q459.2747,887.2009 459.0715,886.9978 Q458.8684,886.8103 458.759,886.2947 Q458.7122,885.9353 458.5247,885.7478 Q458.1965,885.3728 457.5872,885.1541 Q456.9778,884.9353 456.3528,884.9353 Q455.5872,884.9353 454.9465,885.2634 Q454.3215,885.5916 453.8215,886.3416 Q453.3372,887.0916 453.3372,888.1228 L453.3372,889.2166 Q453.3372,890.4509 454.2278,891.2791 Q455.1184,892.0916 456.7122,892.0916 Q457.6497,892.0916 458.3059,891.8416 Q458.6965,891.6853 459.1184,891.2478 Q459.384,890.9822 459.5247,890.9041 Q459.6809,890.8259 459.884,890.8259 Q460.2122,890.8259 460.4622,891.0916 Q460.7278,891.3416 460.7278,891.6853 Q460.7278,892.0291 460.384,892.4353 Q459.884,893.0134 459.0872,893.3416 Q458.009,893.7947 456.7122,893.7947 Q455.1965,893.7947 453.9934,893.1697 Q453.009,892.6697 452.3215,891.6072 Q451.634,890.5291 451.634,889.2478 L451.634,888.0916 Q451.634,886.7634 452.2434,885.6228 Q452.8684,884.4666 453.9622,883.8572 Q455.0559,883.2322 456.2903,883.2322 Q457.0247,883.2322 457.6653,883.4041 Q458.3215,883.5603 458.8684,883.9197 Z " fill="#000000"/><text fill="#000000" font-family="sans-serif" font-size="12" font-style="italic" lengthAdjust="spacing" textLength="113.5664" x="503.471" y="883.7029">&#171;@ControllerAdvice&#187;</text><text fill="#000000" font-family="sans-serif" font-size="14" lengthAdjust="spacing" textLength="167.3027" x="476.6028" y="901.822">CommonExceptionHandler</text><line style="stroke:#181818;stroke-width:0.5;" x1="294.24" x2="793.7683" y1="910.3357" y2="910.3357"/><text fill="#000000" font-family="sans-serif" font-size="14" lengthAdjust="spacing" textLength="489.5283" x="299.24" y="929.4431">+@ExceptionHandler @ResponseStatus onNotFound(ex: NotFoundException)</text></g><!--class Autohaus--><g id="elem_Autohaus"><rect fill="#F1F1F1" height="32" id="Autohaus" rx="2.5" ry="2.5" style="stroke:#181818;stroke-width:0.5;" width="91.1582" x="484.42" y="754.7537"/><ellipse cx="499.42" cy="770.7537" fill="#ADD1B2" rx="11" ry="11" style="stroke:#181818;stroke-width:1.0;"/><path d="M502.1856,766.6287 Q502.3419,766.4099 502.5294,766.3005 Q502.7169,766.1912 502.9356,766.1912 Q503.3106,766.1912 503.545,766.4568 Q503.7794,766.7068 503.7794,767.3162 L503.7794,768.7693 Q503.7794,769.3787 503.545,769.6443 Q503.3106,769.9099 502.9356,769.9099 Q502.5919,769.9099 502.3888,769.7068 Q502.1856,769.5193 502.0763,769.0037 Q502.0294,768.6443 501.8419,768.4568 Q501.5138,768.0818 500.9044,767.863 Q500.295,767.6443 499.67,767.6443 Q498.9044,767.6443 498.2638,767.9724 Q497.6388,768.3005 497.1388,769.0505 Q496.6544,769.8005 496.6544,770.8318 L496.6544,771.9255 Q496.6544,773.1599 497.545,773.988 Q498.4356,774.8005 500.0294,774.8005 Q500.9669,774.8005 501.6231,774.5505 Q502.0138,774.3943 502.4356,773.9568 Q502.7013,773.6912 502.8419,773.613 Q502.9981,773.5349 503.2013,773.5349 Q503.5294,773.5349 503.7794,773.8005 Q504.045,774.0505 504.045,774.3943 Q504.045,774.738 503.7013,775.1443 Q503.2013,775.7224 502.4044,776.0505 Q501.3263,776.5037 500.0294,776.5037 Q498.5138,776.5037 497.3106,775.8787 Q496.3263,775.3787 495.6388,774.3162 Q494.9513,773.238 494.9513,771.9568 L494.9513,770.8005 Q494.9513,769.4724 495.5606,768.3318 Q496.1856,767.1755 497.2794,766.5662 Q498.3731,765.9412 499.6075,765.9412 Q500.3419,765.9412 500.9825,766.113 Q501.6388,766.2693 502.1856,766.6287 Z " fill="#000000"/><text fill="#000000" font-family="sans-serif" font-size="14" lengthAdjust="spacing" textLength="59.1582" x="513.42" y="776.5505">Autohaus</text></g><!--link AutohausGetController to AutohausReadService--><g id="link_AutohausGetController_AutohausReadService"><path codeLine="39" d="M653.4778,700.2645 C765.2178,767.1145 897.6,871.2537 812,960.9637 C784.12,990.1737 487.12,964.6537 449,977.9637 C421.94,987.4037 400.3569,1002.5105 381.1869,1018.9305 " fill="none" id="AutohausGetController-AutohausReadService" style="stroke:#181818;stroke-width:1.0;"/><polygon fill="none" points="643.18,694.1037,646.2753,700.6167,653.4778,700.2645,650.3825,693.7515,643.18,694.1037" style="stroke:#181818;stroke-width:1.0;"/><polygon fill="#181818" points="376.63,1022.8337,386.0674,1020.0168,380.4274,1019.581,380.8632,1013.941,376.63,1022.8337" style="stroke:#181818;stroke-width:1.0;"/><text fill="#000000" font-family="sans-serif" font-size="13" lengthAdjust="spacing" textLength="41.1772" x="814.2" y="831.782">service</text><text fill="#000000" font-family="sans-serif" font-size="13" lengthAdjust="spacing" textLength="7.23" x="375.2483" y="1011.8686">1</text></g><!--link AutohausGetController to Autohaus--><g id="link_AutohausGetController_Autohaus"><path codeLine="40" d="M530,693.8737 C530,716.1937 530,733.6837 530,748.5037 " fill="none" id="AutohausGetController-to-Autohaus" style="stroke:#181818;stroke-width:1.0;stroke-dasharray:7.0,7.0;"/><polygon fill="#181818" points="530,754.5037,534,745.5037,530,749.5037,526,745.5037,530,754.5037" style="stroke:#181818;stroke-width:1.0;"/></g><!--reverse link RestController to AutohausGetController--><g id="link_RestController_AutohausGetController"><path codeLine="42" d="M699.4875,260.8314 C675.7075,312.9014 599.76,479.1737 557.52,571.6437 " fill="none" id="RestController-backto-AutohausGetController" style="stroke:#181818;stroke-width:1.0;stroke-dasharray:7.0,7.0;"/><polygon fill="#181818" points="701.98,255.3737,694.6027,261.8986,699.9029,259.9218,701.8797,265.222,701.98,255.3737" style="stroke:#181818;stroke-width:1.0;"/></g><!--reverse link RequestMapping to AutohausGetController--><g id="link_RequestMapping_AutohausGetController"><path codeLine="43" d="M530,261.3737 C530,313.4437 530,479.1737 530,571.6437 " fill="none" id="RequestMapping-backto-AutohausGetController" style="stroke:#181818;stroke-width:1.0;stroke-dasharray:7.0,7.0;"/><polygon fill="#181818" points="530,255.3737,526,264.3737,530,260.3737,534,264.3737,530,255.3737" style="stroke:#181818;stroke-width:1.0;"/></g><!--reverse link PathVariable to AutohausGetController--><g id="link_PathVariable_AutohausGetController"><path codeLine="44" d="M365.2549,260.8574 C388.3749,312.9274 462.19,479.1737 503.25,571.6437 " fill="none" id="PathVariable-backto-AutohausGetController" style="stroke:#181818;stroke-width:1.0;stroke-dasharray:7.0,7.0;"/><polygon fill="#181818" points="362.82,255.3737,362.8165,265.2225,364.8491,259.9435,370.1281,261.976,362.82,255.3737" style="stroke:#181818;stroke-width:1.0;"/></g><!--reverse link RequestParam to AutohausGetController--><g id="link_RequestParam_AutohausGetController"><path codeLine="45" d="M199.3775,260.5198 C213.9175,286.2998 242.33,334.3737 275,375.0137 C333.17,447.3737 409.14,521.7737 462.98,571.7537 " fill="none" id="RequestParam-backto-AutohausGetController" style="stroke:#181818;stroke-width:1.0;stroke-dasharray:7.0,7.0;"/><polygon fill="#181818" points="196.43,255.2937,197.3672,265.0978,198.8863,259.6487,204.3354,261.1678,196.43,255.2937" style="stroke:#181818;stroke-width:1.0;"/></g><!--reverse link MultiValueMap to AutohausGetController--><g id="link_MultiValueMap_AutohausGetController"><path codeLine="46" d="M1313.2377,259.9354 C1288.0477,288.9654 1232.82,346.8737 1168,375.0137 C1112.12,399.2637 1090.46,374.8837 1032,392.0137 C886.01,434.7937 729.64,515.7237 630.92,571.6737 " fill="none" id="MultiValueMap-backto-AutohausGetController" style="stroke:#181818;stroke-width:1.0;stroke-dasharray:7.0,7.0;"/><polygon fill="#181818" points="1317.17,255.4037,1308.2503,259.5798,1313.8931,259.1801,1314.2927,264.8229,1317.17,255.4037" style="stroke:#181818;stroke-width:1.0;"/></g><!--reverse link ExceptionHandler to CommonExceptionHandler--><g id="link_ExceptionHandler_CommonExceptionHandler"><path codeLine="48" d="M1067.9156,261.2839 C1060.0956,288.7239 1045.08,341.9437 1032,392.0137 C979.88,591.4637 1071.02,725.2537 897,835.7537 C877.41,848.1937 839.32,858.8737 795.17,867.7437 " fill="none" id="ExceptionHandler-backto-CommonExceptionHandler" style="stroke:#181818;stroke-width:1.0;stroke-dasharray:7.0,7.0;"/><polygon fill="#181818" points="1069.56,255.5137,1063.2465,263.0728,1068.1896,260.3222,1070.9402,265.2653,1069.56,255.5137" style="stroke:#181818;stroke-width:1.0;"/></g><!--reverse link ResponseStatus to CommonExceptionHandler--><g id="link_ResponseStatus_CommonExceptionHandler"><path codeLine="49" d="M893.328,260.9755 C918.568,335.3555 1015.45,657.4937 864,835.7537 C852.35,849.4737 826.79,860.3537 794.94,868.9737 " fill="none" id="ResponseStatus-backto-CommonExceptionHandler" style="stroke:#181818;stroke-width:1.0;stroke-dasharray:7.0,7.0;"/><polygon fill="#181818" points="891.4,255.2937,890.5042,265.1017,893.0067,260.0285,898.0799,262.531,891.4,255.2937" style="stroke:#181818;stroke-width:1.0;"/></g><!--link CommonExceptionHandler to NotFoundException--><g id="link_CommonExceptionHandler_NotFoundException"><path codeLine="50" d="M544,937.1237 C544,968.5937 544,1007.4937 544,1030.8237 " fill="none" id="CommonExceptionHandler-to-NotFoundException" style="stroke:#181818;stroke-width:1.0;stroke-dasharray:7.0,7.0;"/><polygon fill="#181818" points="544,1036.8237,548,1027.8237,544,1031.8237,540,1027.8237,544,1036.8237" style="stroke:#181818;stroke-width:1.0;"/></g><!--reverse link Autohaus to CommonExceptionHandler--><!--link AutohausGetController to List--><g id="link_AutohausGetController_List"><path codeLine="53" d="M850.67,632.8837 C916.39,632.8837 976.11,632.8837 1041.83,632.8837 " fill="none" id="AutohausGetController-to-List" style="stroke:#181818;stroke-width:1.0;stroke-dasharray:7.0,7.0;"/><polygon fill="#181818" points="1047.83,632.8837,1038.83,628.8837,1042.83,632.8837,1038.83,636.8837,1047.83,632.8837" style="stroke:#181818;stroke-width:1.0;"/></g><!--link Autohaus to AutohausReadService--><g id="link_Autohaus_AutohausReadService"><path codeLine="55" d="M483.93,773.7537 C424.45,779.0937 323.02,798.2237 276,865.7537 C251.82,900.4837 262.4,920.8937 276,960.9637 C283.89,984.2237 296.3336,1001.7553 311.3136,1018.3053 " fill="none" id="Autohaus-to-AutohausReadService" style="stroke:#181818;stroke-width:1.0;stroke-dasharray:7.0,7.0;"/><polygon fill="#181818" points="315.34,1022.7537,312.266,1013.3968,311.9847,1019.0467,306.3348,1018.7654,315.34,1022.7537" style="stroke:#181818;stroke-width:1.0;"/></g><text fill="#888888" font-family="sans-serif" font-size="10" lengthAdjust="spacing" textLength="86.1377" x="687.4312" y="1188.2947">(c) Jonas Kirschner</text><!--SRC=[bLHDRvj04BtxLuoSYwqcgBrQ5hARVgLfgYYMVAbw660CMyCktLsIk5N-UnVCXWK3QVPYFCoRj_FcCMhFU8uICmXJL6gjjMH1eUag57p3_X2ydKno3FSO4mWPUogNZCSx0w078VVmTmBcs8m72ho0ySX3peL6pGIlCyh3k2Qvmv1WkheZfIy5rrAaASafe89sQ03rkp1PDvZdvXOroWtrecvH9rkK38EKAemR6EEvBOLnMQf0B-BZOqXvsUyNv97jg1iSKY8NND76w5KeguGJgb1FavRGXMQfesmrExWfKissc1Par5XUds_z6lhKpF0NtgFde8_8RqnfDoiKcOTXHXuMMYHOgCwS5SbxPcxVlS6wJhyZZ3Prpd9fobLJ1Tyl_wti6z_lmByB_KaKF7hMpRPkUQMP0PnzgCuW-MToR5GI1cLDb0VBtpPQ4tMDL4ORWlAyWPMfR5_7f6Sjcu1vb8VgKIqwezZeygCvX-ElFrzKWY_jXVrndlU7gsZMCZ6mQ54NCxLicUSgjLSQPIv5bWdUTMFLTQF3Egg7Sjht2R9ZMX3SZcv6ZulJESxxxjO_Bt5nuSFqtRJNImlhl1UAU9xVoF9IRf6Rx87bCmxftJnZaDx5ynySxRqp1cWPhsbzm057pE2Q6aNrBAanZ47qVzxZH3yI5aN4Vxvce9B5YJQ0QgkT9BVCuPYhsPM6ae2oN1yWeomWQIXtGfYL3RDm3by5DplwcaaL9joezGy0]--></g></svg>
