<svg xmlns="http://www.w3.org/2000/svg" xmlns:xlink="http://www.w3.org/1999/xlink" contentStyleType="text/css" height="993px" preserveAspectRatio="none" style="width:1094px;height:993px;background:#FFFFFF;" version="1.1" viewBox="0 0 1094 993" width="1094px" zoomAndPan="magnify"><defs/><g><!--cluster java--><g id="cluster_java"><path d="M8.5,6.0137 L36.748,6.0137 A3.75,3.75 0 0 1 39.248,8.5137 L46.248,30.6348 L1084.5,30.6348 A2.5,2.5 0 0 1 1087,33.1348 L1087,963.6537 A2.5,2.5 0 0 1 1084.5,966.1537 L8.5,966.1537 A2.5,2.5 0 0 1 6,963.6537 L6,8.5137 A2.5,2.5 0 0 1 8.5,6.0137 " fill="none" style="stroke:#000000;stroke-width:1.5;"/><line style="stroke:#000000;stroke-width:1.5;" x1="6" x2="46.248" y1="30.6348" y2="30.6348"/><text fill="#000000" font-family="sans-serif" font-size="14" font-weight="bold" lengthAdjust="spacing" textLength="27.248" x="10" y="23.1211">java</text></g><!--cluster util--><g id="cluster_util"><path d="M866.5,731.9137 L888.4932,731.9137 A3.75,3.75 0 0 1 890.9932,734.4137 L897.9932,756.5348 L1060.5,756.5348 A2.5,2.5 0 0 1 1063,759.0348 L1063,830.4137 A2.5,2.5 0 0 1 1060.5,832.9137 L866.5,832.9137 A2.5,2.5 0 0 1 864,830.4137 L864,734.4137 A2.5,2.5 0 0 1 866.5,731.9137 " fill="none" style="stroke:#000000;stroke-width:1.5;"/><line style="stroke:#000000;stroke-width:1.5;" x1="864" x2="897.9932" y1="756.5348" y2="756.5348"/><text fill="#000000" font-family="sans-serif" font-size="14" font-weight="bold" lengthAdjust="spacing" textLength="20.9932" x="868" y="749.0211">util</text></g><!--cluster math--><g id="cluster_math"><path d="M32.5,731.9137 L66.9482,731.9137 A3.75,3.75 0 0 1 69.4482,734.4137 L76.4482,756.5348 L161.5,756.5348 A2.5,2.5 0 0 1 164,759.0348 L164,830.4137 A2.5,2.5 0 0 1 161.5,832.9137 L32.5,832.9137 A2.5,2.5 0 0 1 30,830.4137 L30,734.4137 A2.5,2.5 0 0 1 32.5,731.9137 " fill="none" style="stroke:#000000;stroke-width:1.5;"/><line style="stroke:#000000;stroke-width:1.5;" x1="30" x2="76.4482" y1="756.5348" y2="756.5348"/><text fill="#000000" font-family="sans-serif" font-size="14" font-weight="bold" lengthAdjust="spacing" textLength="33.4482" x="34" y="749.0211">math</text></g><!--cluster time--><g id="cluster_time"><path d="M190.5,731.9137 L220.2861,731.9137 A3.75,3.75 0 0 1 222.7861,734.4137 L229.7861,756.5348 L313.5,756.5348 A2.5,2.5 0 0 1 316,759.0348 L316,830.4137 A2.5,2.5 0 0 1 313.5,832.9137 L190.5,832.9137 A2.5,2.5 0 0 1 188,830.4137 L188,734.4137 A2.5,2.5 0 0 1 190.5,731.9137 " fill="none" style="stroke:#000000;stroke-width:1.5;"/><line style="stroke:#000000;stroke-width:1.5;" x1="188" x2="229.7861" y1="756.5348" y2="756.5348"/><text fill="#000000" font-family="sans-serif" font-size="14" font-weight="bold" lengthAdjust="spacing" textLength="28.7861" x="192" y="749.0211">time</text></g><!--cluster com--><g id="cluster_com"><path d="M342.5,51.0137 L372.2861,51.0137 A3.75,3.75 0 0 1 374.7861,53.5137 L381.7861,75.6348 L837.5,75.6348 A2.5,2.5 0 0 1 840,78.1348 L840,939.6537 A2.5,2.5 0 0 1 837.5,942.1537 L342.5,942.1537 A2.5,2.5 0 0 1 340,939.6537 L340,53.5137 A2.5,2.5 0 0 1 342.5,51.0137 " fill="none" style="stroke:#000000;stroke-width:1.5;"/><line style="stroke:#000000;stroke-width:1.5;" x1="340" x2="381.7861" y1="75.6348" y2="75.6348"/><text fill="#000000" font-family="sans-serif" font-size="14" font-weight="bold" lengthAdjust="spacing" textLength="28.7861" x="344" y="68.1211">com</text></g><!--cluster acme--><g id="cluster_acme"><path d="M366.5,96.0137 L403.3066,96.0137 A3.75,3.75 0 0 1 405.8066,98.5137 L412.8066,120.6348 L813.5,120.6348 A2.5,2.5 0 0 1 816,123.1348 L816,915.6537 A2.5,2.5 0 0 1 813.5,918.1537 L366.5,918.1537 A2.5,2.5 0 0 1 364,915.6537 L364,98.5137 A2.5,2.5 0 0 1 366.5,96.0137 " fill="none" style="stroke:#000000;stroke-width:1.5;"/><line style="stroke:#000000;stroke-width:1.5;" x1="364" x2="412.8066" y1="120.6348" y2="120.6348"/><text fill="#000000" font-family="sans-serif" font-size="14" font-weight="bold" lengthAdjust="spacing" textLength="35.8066" x="368" y="113.1211">acme</text></g><!--cluster autohaus--><g id="cluster_autohaus"><path d="M390.5,141.0137 L453.7275,141.0137 A3.75,3.75 0 0 1 456.2275,143.5137 L463.2275,165.6348 L789.5,165.6348 A2.5,2.5 0 0 1 792,168.1348 L792,891.6537 A2.5,2.5 0 0 1 789.5,894.1537 L390.5,894.1537 A2.5,2.5 0 0 1 388,891.6537 L388,143.5137 A2.5,2.5 0 0 1 390.5,141.0137 " fill="none" style="stroke:#000000;stroke-width:1.5;"/><line style="stroke:#000000;stroke-width:1.5;" x1="388" x2="463.2275" y1="165.6348" y2="165.6348"/><text fill="#000000" font-family="sans-serif" font-size="14" font-weight="bold" lengthAdjust="spacing" textLength="62.2275" x="392" y="158.1211">autohaus</text></g><!--cluster entity--><g id="cluster_entity"><path d="M414.5,186.0137 L452.8379,186.0137 A3.75,3.75 0 0 1 455.3379,188.5137 L462.3379,210.6348 L765.5,210.6348 A2.5,2.5 0 0 1 768,213.1348 L768,867.6537 A2.5,2.5 0 0 1 765.5,870.1537 L414.5,870.1537 A2.5,2.5 0 0 1 412,867.6537 L412,188.5137 A2.5,2.5 0 0 1 414.5,186.0137 " fill="#DDDDDD" style="stroke:#000000;stroke-width:1.5;"/><line style="stroke:#000000;stroke-width:1.5;" x1="412" x2="462.3379" y1="210.6348" y2="210.6348"/><text fill="#000000" font-family="sans-serif" font-size="14" font-weight="bold" lengthAdjust="spacing" textLength="37.3379" x="416" y="203.1211">entity</text></g><!--class UUID--><g id="elem_UUID"><rect codeLine="6" fill="#F1F1F1" height="48" id="UUID" rx="2.5" ry="2.5" style="stroke:#181818;stroke-width:0.5;" width="66.2207" x="879.89" y="768.9137"/><ellipse cx="894.89" cy="784.9137" fill="#ADD1B2" rx="11" ry="11" style="stroke:#181818;stroke-width:1.0;"/><path d="M897.6556,780.7887 Q897.8119,780.5699 897.9994,780.4605 Q898.1869,780.3512 898.4056,780.3512 Q898.7806,780.3512 899.015,780.6168 Q899.2494,780.8668 899.2494,781.4762 L899.2494,782.9293 Q899.2494,783.5387 899.015,783.8043 Q898.7806,784.0699 898.4056,784.0699 Q898.0619,784.0699 897.8588,783.8668 Q897.6556,783.6793 897.5463,783.1637 Q897.4994,782.8043 897.3119,782.6168 Q896.9838,782.2418 896.3744,782.023 Q895.765,781.8043 895.14,781.8043 Q894.3744,781.8043 893.7338,782.1324 Q893.1088,782.4605 892.6088,783.2105 Q892.1244,783.9605 892.1244,784.9918 L892.1244,786.0855 Q892.1244,787.3199 893.015,788.148 Q893.9056,788.9605 895.4994,788.9605 Q896.4369,788.9605 897.0931,788.7105 Q897.4838,788.5543 897.9056,788.1168 Q898.1713,787.8512 898.3119,787.773 Q898.4681,787.6949 898.6713,787.6949 Q898.9994,787.6949 899.2494,787.9605 Q899.515,788.2105 899.515,788.5543 Q899.515,788.898 899.1713,789.3043 Q898.6713,789.8824 897.8744,790.2105 Q896.7963,790.6637 895.4994,790.6637 Q893.9838,790.6637 892.7806,790.0387 Q891.7963,789.5387 891.1088,788.4762 Q890.4213,787.398 890.4213,786.1168 L890.4213,784.9605 Q890.4213,783.6324 891.0306,782.4918 Q891.6556,781.3355 892.7494,780.7262 Q893.8431,780.1012 895.0775,780.1012 Q895.8119,780.1012 896.4525,780.273 Q897.1088,780.4293 897.6556,780.7887 Z " fill="#000000"/><text fill="#000000" font-family="sans-serif" font-size="14" lengthAdjust="spacing" textLength="34.2207" x="908.89" y="790.7105">UUID</text><line style="stroke:#181818;stroke-width:0.5;" x1="880.89" x2="945.1107" y1="800.9137" y2="800.9137"/><line style="stroke:#181818;stroke-width:0.5;" x1="880.89" x2="945.1107" y1="808.9137" y2="808.9137"/></g><!--class List--><g id="elem_List"><rect codeLine="7" fill="#F1F1F1" height="48" id="List" rx="2.5" ry="2.5" style="stroke:#181818;stroke-width:0.5;" width="65.1162" x="981.44" y="768.9137"/><ellipse cx="996.44" cy="784.9137" fill="#B4A7E5" rx="11" ry="11" style="stroke:#181818;stroke-width:1.0;"/><path d="M997.3931,781.5543 L997.3931,788.2105 L999.1119,788.2105 Q999.7213,788.2105 999.9869,788.4449 Q1000.2525,788.6793 1000.2525,789.0699 Q1000.2525,789.4449 999.9869,789.6793 Q999.7213,789.9137 999.1119,789.9137 L993.9713,789.9137 Q993.3619,789.9137 993.0963,789.6793 Q992.8306,789.4449 992.8306,789.0543 Q992.8306,788.6793 993.0963,788.4449 Q993.3619,788.2105 993.9713,788.2105 L995.69,788.2105 L995.69,781.5543 L993.9713,781.5543 Q993.3619,781.5543 993.0963,781.3199 Q992.8306,781.0855 992.8306,780.6949 Q992.8306,780.3199 993.0963,780.0855 Q993.3619,779.8512 993.9713,779.8512 L999.1119,779.8512 Q999.7213,779.8512 999.9869,780.0855 Q1000.2525,780.3199 1000.2525,780.6949 Q1000.2525,781.0855 999.9869,781.3199 Q999.7213,781.5543 999.1119,781.5543 L997.3931,781.5543 Z " fill="#000000"/><text fill="#000000" font-family="sans-serif" font-size="14" font-style="italic" lengthAdjust="spacing" textLength="21.7861" x="1010.44" y="790.7105">List</text><rect fill="#FFFFFF" height="17.9609" style="stroke:#181818;stroke-width:1.0;stroke-dasharray:2.0,2.0;" width="9.3301" x="1040.2261" y="765.9137"/><text fill="#000000" font-family="sans-serif" font-size="12" font-style="italic" lengthAdjust="spacing" textLength="7.3301" x="1041.2261" y="779.8629">T</text><line style="stroke:#181818;stroke-width:0.5;" x1="982.44" x2="1045.5562" y1="800.9137" y2="800.9137"/><line style="stroke:#181818;stroke-width:0.5;" x1="982.44" x2="1045.5562" y1="808.9137" y2="808.9137"/></g><!--class BigDecimal--><g id="elem_BigDecimal"><rect codeLine="11" fill="#F1F1F1" height="48" id="BigDecimal" rx="2.5" ry="2.5" style="stroke:#181818;stroke-width:0.5;" width="102.7998" x="45.6" y="768.9137"/><ellipse cx="60.6" cy="784.9137" fill="#ADD1B2" rx="11" ry="11" style="stroke:#181818;stroke-width:1.0;"/><path d="M63.3656,780.7887 Q63.5219,780.5699 63.7094,780.4605 Q63.8969,780.3512 64.1156,780.3512 Q64.4906,780.3512 64.725,780.6168 Q64.9594,780.8668 64.9594,781.4762 L64.9594,782.9293 Q64.9594,783.5387 64.725,783.8043 Q64.4906,784.0699 64.1156,784.0699 Q63.7719,784.0699 63.5688,783.8668 Q63.3656,783.6793 63.2563,783.1637 Q63.2094,782.8043 63.0219,782.6168 Q62.6938,782.2418 62.0844,782.023 Q61.475,781.8043 60.85,781.8043 Q60.0844,781.8043 59.4438,782.1324 Q58.8188,782.4605 58.3188,783.2105 Q57.8344,783.9605 57.8344,784.9918 L57.8344,786.0855 Q57.8344,787.3199 58.725,788.148 Q59.6156,788.9605 61.2094,788.9605 Q62.1469,788.9605 62.8031,788.7105 Q63.1938,788.5543 63.6156,788.1168 Q63.8813,787.8512 64.0219,787.773 Q64.1781,787.6949 64.3813,787.6949 Q64.7094,787.6949 64.9594,787.9605 Q65.225,788.2105 65.225,788.5543 Q65.225,788.898 64.8813,789.3043 Q64.3813,789.8824 63.5844,790.2105 Q62.5063,790.6637 61.2094,790.6637 Q59.6938,790.6637 58.4906,790.0387 Q57.5063,789.5387 56.8188,788.4762 Q56.1313,787.398 56.1313,786.1168 L56.1313,784.9605 Q56.1313,783.6324 56.7406,782.4918 Q57.3656,781.3355 58.4594,780.7262 Q59.5531,780.1012 60.7875,780.1012 Q61.5219,780.1012 62.1625,780.273 Q62.8188,780.4293 63.3656,780.7887 Z " fill="#000000"/><text fill="#000000" font-family="sans-serif" font-size="14" lengthAdjust="spacing" textLength="70.7998" x="74.6" y="790.7105">BigDecimal</text><line style="stroke:#181818;stroke-width:0.5;" x1="46.6" x2="147.3998" y1="800.9137" y2="800.9137"/><line style="stroke:#181818;stroke-width:0.5;" x1="46.6" x2="147.3998" y1="808.9137" y2="808.9137"/></g><!--class LocalDate--><g id="elem_LocalDate"><rect codeLine="15" fill="#F1F1F1" height="48" id="LocalDate" rx="2.5" ry="2.5" style="stroke:#181818;stroke-width:0.5;" width="95.041" x="204.48" y="768.9137"/><ellipse cx="219.48" cy="784.9137" fill="#ADD1B2" rx="11" ry="11" style="stroke:#181818;stroke-width:1.0;"/><path d="M222.2456,780.7887 Q222.4019,780.5699 222.5894,780.4605 Q222.7769,780.3512 222.9956,780.3512 Q223.3706,780.3512 223.605,780.6168 Q223.8394,780.8668 223.8394,781.4762 L223.8394,782.9293 Q223.8394,783.5387 223.605,783.8043 Q223.3706,784.0699 222.9956,784.0699 Q222.6519,784.0699 222.4488,783.8668 Q222.2456,783.6793 222.1363,783.1637 Q222.0894,782.8043 221.9019,782.6168 Q221.5738,782.2418 220.9644,782.023 Q220.355,781.8043 219.73,781.8043 Q218.9644,781.8043 218.3238,782.1324 Q217.6988,782.4605 217.1988,783.2105 Q216.7144,783.9605 216.7144,784.9918 L216.7144,786.0855 Q216.7144,787.3199 217.605,788.148 Q218.4956,788.9605 220.0894,788.9605 Q221.0269,788.9605 221.6831,788.7105 Q222.0738,788.5543 222.4956,788.1168 Q222.7613,787.8512 222.9019,787.773 Q223.0581,787.6949 223.2613,787.6949 Q223.5894,787.6949 223.8394,787.9605 Q224.105,788.2105 224.105,788.5543 Q224.105,788.898 223.7613,789.3043 Q223.2613,789.8824 222.4644,790.2105 Q221.3863,790.6637 220.0894,790.6637 Q218.5738,790.6637 217.3706,790.0387 Q216.3863,789.5387 215.6988,788.4762 Q215.0113,787.398 215.0113,786.1168 L215.0113,784.9605 Q215.0113,783.6324 215.6206,782.4918 Q216.2456,781.3355 217.3394,780.7262 Q218.4331,780.1012 219.6675,780.1012 Q220.4019,780.1012 221.0425,780.273 Q221.6988,780.4293 222.2456,780.7887 Z " fill="#000000"/><text fill="#000000" font-family="sans-serif" font-size="14" lengthAdjust="spacing" textLength="63.041" x="233.48" y="790.7105">LocalDate</text><line style="stroke:#181818;stroke-width:0.5;" x1="205.48" x2="298.521" y1="800.9137" y2="800.9137"/><line style="stroke:#181818;stroke-width:0.5;" x1="205.48" x2="298.521" y1="808.9137" y2="808.9137"/></g><!--class Adresse--><g id="elem_Adresse"><rect codeLine="19" fill="#F1F1F1" height="122.4844" id="Adresse" rx="2.5" ry="2.5" style="stroke:#181818;stroke-width:0.5;" width="138.0547" x="442.97" y="731.6737"/><ellipse cx="482.5833" cy="747.6737" fill="#ADD1B2" rx="11" ry="11" style="stroke:#181818;stroke-width:1.0;"/><path d="M485.349,743.5487 Q485.5052,743.3299 485.6927,743.2205 Q485.8802,743.1112 486.099,743.1112 Q486.474,743.1112 486.7083,743.3768 Q486.9427,743.6268 486.9427,744.2362 L486.9427,745.6893 Q486.9427,746.2987 486.7083,746.5643 Q486.474,746.8299 486.099,746.8299 Q485.7552,746.8299 485.5521,746.6268 Q485.349,746.4393 485.2396,745.9237 Q485.1927,745.5643 485.0052,745.3768 Q484.6771,745.0018 484.0677,744.783 Q483.4583,744.5643 482.8333,744.5643 Q482.0677,744.5643 481.4271,744.8924 Q480.8021,745.2205 480.3021,745.9705 Q479.8177,746.7205 479.8177,747.7518 L479.8177,748.8455 Q479.8177,750.0799 480.7083,750.908 Q481.599,751.7205 483.1927,751.7205 Q484.1302,751.7205 484.7865,751.4705 Q485.1771,751.3143 485.599,750.8768 Q485.8646,750.6112 486.0052,750.533 Q486.1615,750.4549 486.3646,750.4549 Q486.6927,750.4549 486.9427,750.7205 Q487.2083,750.9705 487.2083,751.3143 Q487.2083,751.658 486.8646,752.0643 Q486.3646,752.6424 485.5677,752.9705 Q484.4896,753.4237 483.1927,753.4237 Q481.6771,753.4237 480.474,752.7987 Q479.4896,752.2987 478.8021,751.2362 Q478.1146,750.158 478.1146,748.8768 L478.1146,747.7205 Q478.1146,746.3924 478.724,745.2518 Q479.349,744.0955 480.4427,743.4862 Q481.5365,742.8612 482.7708,742.8612 Q483.5052,742.8612 484.1458,743.033 Q484.8021,743.1893 485.349,743.5487 Z " fill="#000000"/><text fill="#000000" font-family="sans-serif" font-size="14" lengthAdjust="spacing" textLength="51.3584" x="502.053" y="753.4705">Adresse</text><line style="stroke:#181818;stroke-width:0.5;" x1="443.97" x2="580.0247" y1="763.6737" y2="763.6737"/><text fill="#000000" font-family="sans-serif" font-size="14" lengthAdjust="spacing" textLength="89.4756" x="448.97" y="782.7811">strasse: String</text><text fill="#000000" font-family="sans-serif" font-size="14" lengthAdjust="spacing" textLength="126.0547" x="448.97" y="801.4022">hausnummer: String</text><text fill="#000000" font-family="sans-serif" font-size="14" lengthAdjust="spacing" textLength="62.248" x="448.97" y="820.0233">plz: String</text><text fill="#000000" font-family="sans-serif" font-size="14" lengthAdjust="spacing" textLength="74.7031" x="448.97" y="838.6444">stadt: String</text><line style="stroke:#181818;stroke-width:0.5;" x1="443.97" x2="580.0247" y1="846.158" y2="846.158"/></g><!--class Mitarbeiter--><g id="elem_Mitarbeiter"><rect codeLine="26" fill="#F1F1F1" height="159.7266" id="Mitarbeiter" rx="2.5" ry="2.5" style="stroke:#181818;stroke-width:0.5;" width="168.4268" x="427.79" y="492.9437"/><ellipse cx="474.6879" cy="508.9437" fill="#ADD1B2" rx="11" ry="11" style="stroke:#181818;stroke-width:1.0;"/><path d="M477.4536,504.8187 Q477.6098,504.5999 477.7973,504.4905 Q477.9848,504.3812 478.2036,504.3812 Q478.5786,504.3812 478.8129,504.6468 Q479.0473,504.8968 479.0473,505.5062 L479.0473,506.9593 Q479.0473,507.5687 478.8129,507.8343 Q478.5786,508.0999 478.2036,508.0999 Q477.8598,508.0999 477.6567,507.8968 Q477.4536,507.7093 477.3442,507.1937 Q477.2973,506.8343 477.1098,506.6468 Q476.7817,506.2718 476.1723,506.053 Q475.5629,505.8343 474.9379,505.8343 Q474.1723,505.8343 473.5317,506.1624 Q472.9067,506.4905 472.4067,507.2405 Q471.9223,507.9905 471.9223,509.0218 L471.9223,510.1155 Q471.9223,511.3499 472.8129,512.178 Q473.7036,512.9905 475.2973,512.9905 Q476.2348,512.9905 476.8911,512.7405 Q477.2817,512.5843 477.7036,512.1468 Q477.9692,511.8812 478.1098,511.803 Q478.2661,511.7249 478.4692,511.7249 Q478.7973,511.7249 479.0473,511.9905 Q479.3129,512.2405 479.3129,512.5843 Q479.3129,512.928 478.9692,513.3343 Q478.4692,513.9124 477.6723,514.2405 Q476.5942,514.6937 475.2973,514.6937 Q473.7817,514.6937 472.5786,514.0687 Q471.5942,513.5687 470.9067,512.5062 Q470.2192,511.428 470.2192,510.1468 L470.2192,508.9905 Q470.2192,507.6624 470.8286,506.5218 Q471.4536,505.3655 472.5473,504.7562 Q473.6411,504.1312 474.8754,504.1312 Q475.6098,504.1312 476.2504,504.303 Q476.9067,504.4593 477.4536,504.8187 Z " fill="#000000"/><text fill="#000000" font-family="sans-serif" font-size="14" lengthAdjust="spacing" textLength="66.1309" x="495.1879" y="514.7405">Mitarbeiter</text><line style="stroke:#181818;stroke-width:0.5;" x1="428.79" x2="595.2168" y1="524.9437" y2="524.9437"/><text fill="#000000" font-family="sans-serif" font-size="14" lengthAdjust="spacing" textLength="115.917" x="433.79" y="544.0511">mitarbeierId: UUID</text><text fill="#000000" font-family="sans-serif" font-size="14" lengthAdjust="spacing" textLength="79.3721" x="433.79" y="562.6722">name: String</text><text fill="#000000" font-family="sans-serif" font-size="14" lengthAdjust="spacing" textLength="156.4268" x="433.79" y="581.2933">geburtsdatum: LocalDate</text><text fill="#000000" font-family="sans-serif" font-size="14" lengthAdjust="spacing" textLength="92.6064" x="433.79" y="599.9144">position: String</text><text fill="#000000" font-family="sans-serif" font-size="14" lengthAdjust="spacing" textLength="116.7236" x="433.79" y="618.5355">gehalt: BigDecimal</text><text fill="#000000" font-family="sans-serif" font-size="14" lengthAdjust="spacing" textLength="108.9443" x="433.79" y="637.1566">adresse: Adresse</text><line style="stroke:#181818;stroke-width:0.5;" x1="428.79" x2="595.2168" y1="644.6702" y2="644.6702"/></g><!--class Auto--><g id="elem_Auto"><rect codeLine="35" fill="#F1F1F1" height="159.7266" id="Auto" rx="2.5" ry="2.5" style="stroke:#181818;stroke-width:0.5;" width="120.9238" x="631.54" y="492.9437"/><ellipse cx="673.5958" cy="508.9437" fill="#ADD1B2" rx="11" ry="11" style="stroke:#181818;stroke-width:1.0;"/><path d="M676.3614,504.8187 Q676.5177,504.5999 676.7052,504.4905 Q676.8927,504.3812 677.1114,504.3812 Q677.4864,504.3812 677.7208,504.6468 Q677.9552,504.8968 677.9552,505.5062 L677.9552,506.9593 Q677.9552,507.5687 677.7208,507.8343 Q677.4864,508.0999 677.1114,508.0999 Q676.7677,508.0999 676.5646,507.8968 Q676.3614,507.7093 676.2521,507.1937 Q676.2052,506.8343 676.0177,506.6468 Q675.6896,506.2718 675.0802,506.053 Q674.4708,505.8343 673.8458,505.8343 Q673.0802,505.8343 672.4396,506.1624 Q671.8146,506.4905 671.3146,507.2405 Q670.8302,507.9905 670.8302,509.0218 L670.8302,510.1155 Q670.8302,511.3499 671.7208,512.178 Q672.6114,512.9905 674.2052,512.9905 Q675.1427,512.9905 675.7989,512.7405 Q676.1896,512.5843 676.6114,512.1468 Q676.8771,511.8812 677.0177,511.803 Q677.1739,511.7249 677.3771,511.7249 Q677.7052,511.7249 677.9552,511.9905 Q678.2208,512.2405 678.2208,512.5843 Q678.2208,512.928 677.8771,513.3343 Q677.3771,513.9124 676.5802,514.2405 Q675.5021,514.6937 674.2052,514.6937 Q672.6896,514.6937 671.4864,514.0687 Q670.5021,513.5687 669.8146,512.5062 Q669.1271,511.428 669.1271,510.1468 L669.1271,508.9905 Q669.1271,507.6624 669.7364,506.5218 Q670.3614,505.3655 671.4552,504.7562 Q672.5489,504.1312 673.7833,504.1312 Q674.5177,504.1312 675.1583,504.303 Q675.8146,504.4593 676.3614,504.8187 Z " fill="#000000"/><text fill="#000000" font-family="sans-serif" font-size="14" lengthAdjust="spacing" textLength="28.7998" x="693.6082" y="514.7405">Auto</text><line style="stroke:#181818;stroke-width:0.5;" x1="632.54" x2="751.4638" y1="524.9437" y2="524.9437"/><text fill="#000000" font-family="sans-serif" font-size="14" lengthAdjust="spacing" textLength="80.9238" x="637.54" y="544.0511">autoId: UUID</text><text fill="#000000" font-family="sans-serif" font-size="14" lengthAdjust="spacing" textLength="83.248" x="637.54" y="562.6722">marke: String</text><text fill="#000000" font-family="sans-serif" font-size="14" lengthAdjust="spacing" textLength="85.5928" x="637.54" y="581.2933">modell: String</text><text fill="#000000" font-family="sans-serif" font-size="14" lengthAdjust="spacing" textLength="69.2686" x="637.54" y="599.9144">baujahr: int</text><text fill="#000000" font-family="sans-serif" font-size="14" lengthAdjust="spacing" textLength="89.4824" x="637.54" y="618.5355">besitzer:String</text><text fill="#000000" font-family="sans-serif" font-size="14" lengthAdjust="spacing" textLength="108.9238" x="637.54" y="637.1566">preis: BigDecimal</text><line style="stroke:#181818;stroke-width:0.5;" x1="632.54" x2="751.4638" y1="644.6702" y2="644.6702"/></g><!--class Autohaus--><g id="elem_Autohaus"><rect codeLine="44" fill="#F1F1F1" height="190.9297" id="Autohaus" rx="2.5" ry="2.5" style="stroke:#181818;stroke-width:0.5;" width="190.1787" x="561.91" y="223.0137"/><ellipse cx="623.1703" cy="245.3047" fill="#ADD1B2" rx="11" ry="11" style="stroke:#181818;stroke-width:1.0;"/><path d="M625.9359,241.1797 Q626.0921,240.9609 626.2796,240.8516 Q626.4671,240.7422 626.6859,240.7422 Q627.0609,240.7422 627.2953,241.0078 Q627.5296,241.2578 627.5296,241.8672 L627.5296,243.3203 Q627.5296,243.9297 627.2953,244.1953 Q627.0609,244.4609 626.6859,244.4609 Q626.3421,244.4609 626.139,244.2578 Q625.9359,244.0703 625.8265,243.5547 Q625.7796,243.1953 625.5921,243.0078 Q625.264,242.6328 624.6546,242.4141 Q624.0453,242.1953 623.4203,242.1953 Q622.6546,242.1953 622.014,242.5234 Q621.389,242.8516 620.889,243.6016 Q620.4046,244.3516 620.4046,245.3828 L620.4046,246.4766 Q620.4046,247.7109 621.2953,248.5391 Q622.1859,249.3516 623.7796,249.3516 Q624.7171,249.3516 625.3734,249.1016 Q625.764,248.9453 626.1859,248.5078 Q626.4515,248.2422 626.5921,248.1641 Q626.7484,248.0859 626.9515,248.0859 Q627.2796,248.0859 627.5296,248.3516 Q627.7953,248.6016 627.7953,248.9453 Q627.7953,249.2891 627.4515,249.6953 Q626.9515,250.2734 626.1546,250.6016 Q625.0765,251.0547 623.7796,251.0547 Q622.264,251.0547 621.0609,250.4297 Q620.0765,249.9297 619.389,248.8672 Q618.7015,247.7891 618.7015,246.5078 L618.7015,245.3516 Q618.7015,244.0234 619.3109,242.8828 Q619.9359,241.7266 621.0296,241.1172 Q622.1234,240.4922 623.3578,240.4922 Q624.0921,240.4922 624.7328,240.6641 Q625.389,240.8203 625.9359,241.1797 Z " fill="#000000"/><text fill="#000000" font-family="sans-serif" font-size="12" font-style="italic" lengthAdjust="spacing" textLength="42.0293" x="652.2347" y="240.9629">&#171;entity&#187;</text><text fill="#000000" font-family="sans-serif" font-size="14" lengthAdjust="spacing" textLength="59.1582" x="643.6703" y="259.082">Autohaus</text><line style="stroke:#181818;stroke-width:0.5;" x1="562.91" x2="751.0887" y1="267.5957" y2="267.5957"/><text fill="#000000" font-family="sans-serif" font-size="14" lengthAdjust="spacing" textLength="113.6064" x="567.91" y="286.7031">autohausID: UUID</text><text fill="#000000" font-family="sans-serif" font-size="14" lengthAdjust="spacing" textLength="79.3721" x="567.91" y="305.3242">name: String</text><text fill="#000000" font-family="sans-serif" font-size="14" lengthAdjust="spacing" textLength="94.9375" x="567.91" y="323.9453">standort: String</text><text fill="#000000" font-family="sans-serif" font-size="14" lengthAdjust="spacing" textLength="137.7305" x="567.91" y="342.5664">telefonnummer: String</text><text fill="#000000" font-family="sans-serif" font-size="14" lengthAdjust="spacing" textLength="77.8066" x="567.91" y="361.1875">email: String</text><text fill="#000000" font-family="sans-serif" font-size="14" lengthAdjust="spacing" textLength="108.9648" x="567.91" y="379.8086">autos: List&lt;Auto&gt;</text><text fill="#000000" font-family="sans-serif" font-size="14" lengthAdjust="spacing" textLength="178.1787" x="567.91" y="398.4297">mitarbeiter: List&lt;Mitarbeiter&gt;</text><line style="stroke:#181818;stroke-width:0.5;" x1="562.91" x2="751.0887" y1="405.9434" y2="405.9434"/></g><!--link Autohaus to Auto--><g id="link_Autohaus_Auto"><path codeLine="54" d="M671.7794,426.0398 C675.3694,451.9098 676.7442,461.8408 680.2042,486.7408 " fill="none" id="Autohaus-Auto" style="stroke:#181818;stroke-width:1.0;"/><polygon fill="#181818" points="670.13,414.1537,666.9927,420.6465,671.7794,426.0398,674.9168,419.5469,670.13,414.1537" style="stroke:#181818;stroke-width:1.0;"/><polygon fill="#181818" points="681.03,492.6837,683.7532,483.2188,680.3418,487.7313,675.8294,484.3199,681.03,492.6837" style="stroke:#181818;stroke-width:1.0;"/><text fill="#000000" font-family="sans-serif" font-size="13" lengthAdjust="spacing" textLength="31.8018" x="677.6" y="458.972">autos</text><text fill="#000000" font-family="sans-serif" font-size="13" lengthAdjust="spacing" textLength="7.23" x="663.8457" y="435.843">1</text><text fill="#000000" font-family="sans-serif" font-size="13" lengthAdjust="spacing" textLength="19.5127" x="660.1664" y="481.5554">0..*</text></g><!--link Autohaus to Mitarbeiter--><g id="link_Autohaus_Mitarbeiter"><path codeLine="55" d="M596.613,424.5592 C581.753,450.4292 574.7696,462.5816 560.4596,487.4816 " fill="none" id="Autohaus-Mitarbeiter" style="stroke:#181818;stroke-width:1.0;"/><polygon fill="#181818" points="602.59,414.1537,596.133,417.3641,596.613,424.5592,603.07,421.3488,602.59,414.1537" style="stroke:#181818;stroke-width:1.0;"/><polygon fill="#181818" points="557.47,492.6837,565.4226,486.8736,559.9614,488.3486,558.4864,482.8874,557.47,492.6837" style="stroke:#181818;stroke-width:1.0;"/><text fill="#000000" font-family="sans-serif" font-size="13" lengthAdjust="spacing" textLength="61.4072" x="585.5" y="458.972">mitarbeiter</text><text fill="#000000" font-family="sans-serif" font-size="13" lengthAdjust="spacing" textLength="7.23" x="591.3457" y="435.843">1</text><text fill="#000000" font-family="sans-serif" font-size="13" lengthAdjust="spacing" textLength="19.5127" x="541.8093" y="481.5554">1..*</text></g><!--link Autohaus to UUID--><g id="link_Autohaus_UUID"><path codeLine="57" d="M722.05,414.4337 C738.38,439.5537 755.39,466.9337 770,492.9437 C825.93,592.5237 878.7306,711.9113 900.6906,763.0013 " fill="none" id="Autohaus-to-UUID" style="stroke:#181818;stroke-width:1.0;stroke-dasharray:7.0,7.0;"/><polygon fill="#181818" points="903.06,768.5137,903.1808,758.6656,901.0855,763.92,895.831,761.8247,903.06,768.5137" style="stroke:#181818;stroke-width:1.0;"/></g><!--link Autohaus to List--><g id="link_Autohaus_List"><path codeLine="58" d="M750.9,414.0937 C774.05,438.9937 798.16,466.3437 819,492.9437 C895.06,590.0137 967.6937,711.6312 997.6037,763.2912 " fill="none" id="Autohaus-to-List" style="stroke:#181818;stroke-width:1.0;stroke-dasharray:7.0,7.0;"/><polygon fill="#181818" points="1000.61,768.4837,999.5622,758.6907,998.1047,764.1566,992.6388,762.6992,1000.61,768.4837" style="stroke:#181818;stroke-width:1.0;"/></g><!--link Mitarbeiter to Adresse--><g id="link_Mitarbeiter_Adresse"><path codeLine="60" d="M512,665.1637 C512,690.9837 512,701.2137 512,725.4237 " fill="none" id="Mitarbeiter-Adresse" style="stroke:#181818;stroke-width:1.0;"/><polygon fill="#181818" points="512,653.1637,508,659.1637,512,665.1637,516,659.1637,512,653.1637" style="stroke:#181818;stroke-width:1.0;"/><polygon fill="#181818" points="512,731.4237,516,722.4237,512,726.4237,508,722.4237,512,731.4237" style="stroke:#181818;stroke-width:1.0;"/><text fill="#000000" font-family="sans-serif" font-size="13" lengthAdjust="spacing" textLength="46.249" x="513" y="697.702">adresse</text><text fill="#000000" font-family="sans-serif" font-size="13" lengthAdjust="spacing" textLength="7.23" x="504.6089" y="720.376">1</text></g><!--link Mitarbeiter to UUID--><g id="link_Mitarbeiter_UUID"><path codeLine="62" d="M596.71,641.5237 C602.46,645.4337 608.26,649.1837 614,652.6737 C678.46,691.8137 699.64,692.0737 768,723.9137 C806.31,741.7537 844.8203,759.8306 874.1903,773.6406 " fill="none" id="Mitarbeiter-to-UUID" style="stroke:#181818;stroke-width:1.0;stroke-dasharray:7.0,7.0;"/><polygon fill="#181818" points="879.62,776.1937,873.1775,768.7442,875.0952,774.0661,869.7734,775.9838,879.62,776.1937" style="stroke:#181818;stroke-width:1.0;"/></g><!--link Mitarbeiter to LocalDate--><g id="link_Mitarbeiter_LocalDate"><path codeLine="63" d="M427.59,644.6137 C376.58,687.4037 319.4473,735.3381 284.4273,764.7081 " fill="none" id="Mitarbeiter-to-LocalDate" style="stroke:#181818;stroke-width:1.0;stroke-dasharray:7.0,7.0;"/><polygon fill="#181818" points="279.83,768.5637,289.2962,765.8452,283.661,765.3507,284.1555,759.7155,279.83,768.5637" style="stroke:#181818;stroke-width:1.0;"/></g><!--link Mitarbeiter to BigDecimal--><g id="link_Mitarbeiter_BigDecimal"><path codeLine="64" d="M427.35,607.3037 C360.51,635.1037 265.87,677.4737 188,723.9137 C165.81,737.1437 147.1912,750.903 129.7212,764.833 " fill="none" id="Mitarbeiter-to-BigDecimal" style="stroke:#181818;stroke-width:1.0;stroke-dasharray:7.0,7.0;"/><polygon fill="#181818" points="125.03,768.5737,134.5606,766.0902,128.9394,765.4565,129.5731,759.8352,125.03,768.5737" style="stroke:#181818;stroke-width:1.0;"/></g><!--link Auto to UUID--><g id="link_Auto_UUID"><path codeLine="66" d="M752.68,633.6937 C797.79,678.2137 852.6291,732.3395 884.9991,764.2795 " fill="none" id="Auto-to-UUID" style="stroke:#181818;stroke-width:1.0;stroke-dasharray:7.0,7.0;"/><polygon fill="#181818" points="889.27,768.4937,885.6731,759.3251,885.7109,764.9819,880.0542,765.0197,889.27,768.4937" style="stroke:#181818;stroke-width:1.0;"/></g><!--link Auto to LocalDate--><g id="link_Auto_LocalDate"><path codeLine="67" d="M631.46,640.6837 C625.83,645.1037 619.99,649.1737 614,652.6737 C570.24,678.2237 551.81,665.8837 504,682.6737 C431.34,708.1837 355.4842,742.4188 305.3842,766.1088 " fill="none" id="Auto-to-LocalDate" style="stroke:#181818;stroke-width:1.0;stroke-dasharray:7.0,7.0;"/><polygon fill="#181818" points="299.96,768.6737,309.8061,768.4425,304.4801,766.5363,306.3864,761.2103,299.96,768.6737" style="stroke:#181818;stroke-width:1.0;"/></g><text fill="#888888" font-family="sans-serif" font-size="10" lengthAdjust="spacing" textLength="86.1377" x="496.9312" y="982.9447">(c) Jonas Kirschner</text><!--SRC=[ZLJ1Rjim3BtxAmJliXMeqLwDm406NxAsfwuVGCjCpCQI0eaUi0pxzqcsuzXM0ep7H_Bn-P6oEv8-WGKbP0lERPajLHtZJXhzJcSKJqbo0dc40ufF-0NYJo9yNA2EgHsX43s7-FZObHD4cj7kGQ9u9SURdqMV-PiiQ1Hm4z5yfqE9aXIqjrgO54OjhqP2MmBZhGvfL0PIOGOTcmOwbw5cuj_YIzd7o3OmRMkBpiqdEBO-WRbuznRfmuG79jqfXJPAdTfpX3c6cXVeA7EO-qOCjaBofircgn55kwlpfRyQLApfW5LdsTN0dSfNhlJ2Z2CcesyqDj1wUIllGy3WI7wn9jQ-zRxEH0UR8xaAx37MgqoDRHl15NIVq7XV_H5TGVJQpzxjjTaMoULthkOgCAnBR3R3wejYfJTaT-N_MEptg6jZEKemjhWt-iv9e0AAFpICzjhx5n945j7cEN3r-Tc5BDxIz77fSoeU7XyBaJvbsKCwh2KVPjohVEuhvyUNpqUl9cHPSNLeWGQ5G_6SQvoHJgyglrnJNBlWNYUMbxpEpbO_AOkrheYyUmtLw1Tpyhy2XQf2wv9aRqoW_Ig_YHz6WnClP9rijFVY7m00]--></g></svg>
